<svg class="spark" viewBox="0 0 314.62 320.9" xmlns="http://www.w3.org/2000/svg">
  <path class="spark__outer" d="m145.35 104.25 17.94-58.55 11.76 60.1 44.82-41.74-19.87 57.93 59.68-13.74-46.17 40.24 58.55 17.94-60.1 11.76 41.74 44.81-57.93-19.87 13.74 59.69-40.24-46.18-17.94 58.56-11.76-60.11-44.81 41.75 19.87-57.93-59.68 13.74 46.17-40.24-58.56-17.94 60.11-11.76-41.75-44.82 57.94 19.87-13.75-59.68z" fill="#fff"/>
  <path class="spark__outer" d="m144.49 130.87-2.44-130.87 22.27 128.99 74.95-107.32-57.79 117.45 123.71-42.77-115.79 61.05 125.23 38.11-129.56-18.67 78.9 104.44-93.84-91.26 2.45 130.88-22.28-128.99-74.95 107.32 57.8-117.45-123.72 42.77 115.79-61.05-125.22-38.11 129.56 18.67-78.91-104.44z" fill="#fff"/>
  <path class="spark__inner" fill="#ffe000" d="m157.31 143.16 8.95-16.12-.3 18.43 15.81-9.48-9.48 15.81 18.43-.3-16.12 8.95 16.12 8.95-18.43-.31 9.48 15.81-15.81-9.48.3 18.43-8.95-16.11-8.95 16.11.31-18.43-15.81 9.48 9.48-15.81-18.43.31 16.11-8.95-16.11-8.95 18.43.3-9.48-15.81 15.81 9.48-.31-18.43z"/>
  <path class="spark__inner" fill="#ffe000" d="m155.39 150.94 7.48-38.68-1.52 39.37 28.78-26.9-24.37 30.95 39.1-4.84-37.91 10.72 34.47 19.07-36.96-13.62 16.68 35.69-21.91-32.74-7.48 38.68 1.53-39.37-28.79 26.89 24.37-30.95-39.09 4.84 37.91-10.71-34.48-19.07 36.97 13.61-16.68-35.69z"/>
</svg>