<svg xmlns="http://www.w3.org/2000/svg" viewBox="0 0 157.21 354.79"><defs><style>.cls-1{isolation:isolate;}.cls-2{fill:#fff;}.cls-3,.cls-4,.cls-5,.cls-6,.cls-7,.cls-8,.cls-9{fill:none;}.cls-3,.cls-4,.cls-5,.cls-7{stroke:#000;}.cls-3,.cls-5,.cls-7{stroke-miterlimit:10;}.cls-4,.cls-6,.cls-8,.cls-9{stroke-linecap:round;stroke-linejoin:round;}.cls-4{stroke-width:0.37px;}.cls-5{stroke-width:8px;}.cls-6{stroke:#fff;stroke-width:5px;}.cls-7{stroke-width:1.5px;}.cls-8{stroke:#15d1d8;}.cls-8,.cls-9{stroke-width:2px;mix-blend-mode:multiply;}.cls-9{stroke:#ef6baa;}</style></defs><g class="cls-1"><g id="Layer_2" data-name="Layer 2"><g id="Layer_1-2" data-name="Layer 1"><polygon class="cls-2" points="82.93 270.3 99.85 252.62 93.25 276.19 116.75 269.34 99.25 286.45 123.02 292.27 99.31 298.33 116.99 315.26 93.42 308.65 100.27 332.15 83.16 314.65 77.34 338.42 71.28 314.71 54.35 332.39 60.95 308.82 37.46 315.67 54.96 298.56 31.19 292.75 54.9 286.68 37.22 269.76 60.79 276.36 53.94 252.86 71.05 270.36 76.86 246.59 82.93 270.3"/><polygon class="cls-2" points="77.84 279.65 100.48 232.5 85.26 282.54 131.29 257.7 89.56 289.24 141.4 296.2 89.11 297.18 126.95 333.28 84.06 303.34 93.46 354.8 76.37 305.37 53.73 352.51 68.95 302.48 22.92 327.31 64.65 295.78 12.81 288.82 65.1 287.83 27.26 251.73 70.14 281.67 60.74 230.22 77.84 279.65"/><path class="cls-3" d="M101.61,286.9h0a3.23,3.23,0,0,1-1.4,4.33l-13.37,6.82a3,3,0,0,1-4.1-1.52h0a3,3,0,0,1,1.18-4.21l13.37-6.82A3.23,3.23,0,0,1,101.61,286.9Z"/><path class="cls-4" d="M88,297.52a3.8,3.8,0,0,1-4.62-4.68"/><path class="cls-4" d="M89.34,296.84a3.8,3.8,0,0,1-4.62-4.68"/><path class="cls-4" d="M90.67,296.16a3.8,3.8,0,0,1-4.62-4.68"/><path class="cls-4" d="M92,295.48a3.79,3.79,0,0,1-4.61-4.68"/><path class="cls-4" d="M93.34,294.8a3.8,3.8,0,0,1-4.62-4.68"/><path class="cls-4" d="M94.67,294.12a3.8,3.8,0,0,1-4.62-4.68"/><path class="cls-4" d="M96,293.44a3.8,3.8,0,0,1-4.62-4.68"/><path class="cls-4" d="M97.34,292.76a3.8,3.8,0,0,1-4.62-4.68"/><path class="cls-4" d="M98.67,292.08a3.8,3.8,0,0,1-4.62-4.68"/><path class="cls-4" d="M100,291.4a3.8,3.8,0,0,1-4.62-4.68"/><path class="cls-4" d="M100.81,290.83A3.8,3.8,0,0,1,96.72,286"/><path class="cls-4" d="M101.46,290.17a3.81,3.81,0,0,1-3.41-4.81"/><path class="cls-4" d="M101.82,289.3a3.64,3.64,0,0,1-1.48-.94,3.72,3.72,0,0,1-1.07-3.16"/><path class="cls-5" d="M97.1,289.08c45-22.79,77-80.7,39.74-136.24-30.21-45-49.76-21-97.85-38.86S-13.73,35.76,64,3.7"/><path class="cls-6" d="M97.1,289.08c45-22.79,77-80.7,39.74-136.24-30.21-45-49.76-21-97.85-38.86S-13.73,35.76,64,3.7"/><path class="cls-7" d="M99.28,291.67h0a3.27,3.27,0,0,1-4.38-1.43h0a3.27,3.27,0,0,1,1.43-4.38h0"/><path class="cls-8" d="M98.1,289.08c45-22.79,77-80.7,39.74-136.24-30.21-45-49.76-21-97.85-38.86S-12.73,35.76,65,3.7"/><path class="cls-3" d="M79.52,278.4h0a3.24,3.24,0,0,1,.13,4.55L69.33,293.86A3,3,0,0,1,65,293.8h0a3,3,0,0,1-.3-4.36L75,278.53A3.24,3.24,0,0,1,79.52,278.4Z"/><path class="cls-4" d="M70.26,293a3.8,3.8,0,0,1-5.92-2.87"/><path class="cls-4" d="M71.29,291.88A3.79,3.79,0,0,1,65.37,289"/><path class="cls-4" d="M72.31,290.79a3.8,3.8,0,0,1-5.92-2.86"/><path class="cls-4" d="M73.34,289.71a3.81,3.81,0,0,1-5.92-2.87"/><path class="cls-4" d="M74.37,288.62a3.79,3.79,0,0,1-5.92-2.86"/><path class="cls-4" d="M75.4,287.53a3.79,3.79,0,0,1-5.92-2.86"/><path class="cls-4" d="M76.43,286.44a3.8,3.8,0,0,1-5.93-2.86"/><path class="cls-4" d="M77.45,285.36a3.81,3.81,0,0,1-5.92-2.87"/><path class="cls-4" d="M78.48,284.27a3.79,3.79,0,0,1-5.92-2.86"/><path class="cls-4" d="M79.51,283.18a3.79,3.79,0,0,1-5.92-2.86"/><path class="cls-4" d="M80.08,282.37a3.81,3.81,0,0,1-5.46-3.14"/><path class="cls-4" d="M80.47,281.53a3.68,3.68,0,0,1-2.69-.24,3.74,3.74,0,0,1-2.14-3.14"/><path class="cls-4" d="M80.52,280.59a3.67,3.67,0,0,1-1.71-.39,3.72,3.72,0,0,1-2.07-2.62"/><path class="cls-5" d="M76.13,282.12c59.23-59.28,5.5-90.63-.13-65-6.18,28.12,66-.61,33.09-44.11-19-25.21-40.57-33.91-65.73-37.94"/><path class="cls-6" d="M76.13,282.12c59.23-59.28,5.5-90.63-.13-65-6.18,28.12,66-.61,33.09-44.11-19-25.21-40.57-33.91-65.73-37.94"/><path class="cls-9" d="M100.53,219.05c-6.66-12.28-21.69-13.82-24.53-.89-6.18,28.12,66-.61,33.09-44.11-19-25.21-40.57-33.91-65.73-37.94"/><path class="cls-9" d="M76.13,283.12c24.27-24.28,29.57-43.88,27-56.79"/><path class="cls-7" d="M79,283.84h0a3.26,3.26,0,0,1-4.6.06h0a3.25,3.25,0,0,1-.07-4.6h0"/></g></g></g></svg>