<svg xmlns="http://www.w3.org/2000/svg" viewBox="0 0 260.48 372.17"><defs><style>.cls-1{isolation:isolate;}.cls-2{fill:#fff;}.cls-3,.cls-4,.cls-5,.cls-6,.cls-7,.cls-8,.cls-9{fill:none;}.cls-3,.cls-4,.cls-5,.cls-7{stroke:#000;}.cls-3,.cls-5,.cls-7{stroke-miterlimit:10;}.cls-4,.cls-6,.cls-8,.cls-9{stroke-linecap:round;stroke-linejoin:round;}.cls-4{stroke-width:0.37px;}.cls-5{stroke-width:8px;}.cls-6{stroke:#fff;stroke-width:5px;}.cls-7{stroke-width:1.5px;}.cls-8{stroke:#15d1d8;}.cls-8,.cls-9{stroke-width:2px;mix-blend-mode:multiply;}.cls-9{stroke:#ef6baa;}</style></defs><g class="cls-1"><g id="Layer_2" data-name="Layer 2"><g id="Layer_1-2" data-name="Layer 1"><polygon class="cls-2" points="146.77 287.67 163.7 270 157.09 293.56 180.59 286.71 163.09 303.82 186.86 309.64 163.15 315.7 180.83 332.63 157.26 326.03 164.11 349.52 147 332.02 141.19 355.79 135.12 332.08 118.2 349.76 124.8 326.19 101.3 333.04 118.8 315.94 95.03 310.12 118.74 304.05 101.06 287.13 124.63 293.73 117.78 270.24 134.89 287.73 140.71 263.96 146.77 287.67"/><polygon class="cls-2" points="141.68 297.02 164.32 249.87 149.1 299.91 195.13 275.07 153.4 306.61 205.24 313.57 152.95 314.55 190.79 350.65 147.91 320.71 157.31 372.17 140.21 322.74 117.57 369.89 132.79 319.85 86.76 344.69 128.49 313.15 76.65 306.19 128.94 305.2 91.1 269.1 133.99 299.04 124.59 247.59 141.68 297.02"/><path class="cls-3" d="M117.3,292.57h0a3.23,3.23,0,0,0,1.71,4.22l13.82,5.85a3,3,0,0,0,4-1.81h0a3,3,0,0,0-1.47-4.11l-13.82-5.86A3.23,3.23,0,0,0,117.3,292.57Z"/><path class="cls-4" d="M131.63,302.2a3.8,3.8,0,0,0,4.27-5"/><path class="cls-4" d="M130.25,301.61a3.8,3.8,0,0,0,4.28-5"/><path class="cls-4" d="M128.87,301a3.81,3.81,0,0,0,4.28-5"/><path class="cls-4" d="M127.5,300.45a3.8,3.8,0,0,0,4.27-5"/><path class="cls-4" d="M126.12,299.86a3.79,3.79,0,0,0,4.27-5"/><path class="cls-4" d="M124.74,299.28a3.81,3.81,0,0,0,4.28-5"/><path class="cls-4" d="M123.36,298.69a3.8,3.8,0,0,0,4.28-5"/><path class="cls-4" d="M122,298.11a3.8,3.8,0,0,0,4.27-5"/><path class="cls-4" d="M120.61,297.53a3.8,3.8,0,0,0,4.27-5"/><path class="cls-4" d="M119.23,296.94a3.79,3.79,0,0,0,4.27-5"/><path class="cls-4" d="M118.38,296.43a3.81,3.81,0,0,0,3.75-5.07"/><path class="cls-4" d="M117.69,295.82a3.83,3.83,0,0,0,3.06-5"/><path class="cls-4" d="M117.27,295a3.86,3.86,0,0,0,1.41-1.05,3.73,3.73,0,0,0,.84-3.23"/><path class="cls-5" d="M122,294.43c-67.08-28.19-99.53-61.52-60.26-130.1,26.94-47,120-31.8,166.66-53s37.07-81-42.73-107.52"/><path class="cls-6" d="M122,294.43c-67.08-28.19-99.53-61.52-60.26-130.1,26.94-47,120-31.8,166.66-53s37.07-81-42.73-107.52"/><path class="cls-7" d="M120,297.16h0a3.27,3.27,0,0,0,4.27-1.73h0a3.27,3.27,0,0,0-1.74-4.27h0"/><path class="cls-8" d="M121,295.43c-67.08-28.19-99.53-61.52-60.26-130.1,26.94-47,120-31.8,166.66-53s37.07-81-42.73-107.52"/><path class="cls-3" d="M162.75,312.57h0a3.23,3.23,0,0,1-1.71,4.22l-13.82,5.85a3,3,0,0,1-4-1.81h0a3,3,0,0,1,1.47-4.11l13.82-5.86A3.23,3.23,0,0,1,162.75,312.57Z"/><path class="cls-4" d="M148.42,322.2a3.8,3.8,0,0,1-4.27-5"/><path class="cls-4" d="M149.8,321.61a3.79,3.79,0,0,1-4.27-5"/><path class="cls-4" d="M151.18,321a3.8,3.8,0,0,1-4.27-5"/><path class="cls-4" d="M152.56,320.45a3.81,3.81,0,0,1-4.28-5"/><path class="cls-4" d="M153.94,319.86a3.8,3.8,0,0,1-4.28-5"/><path class="cls-4" d="M155.31,319.28a3.8,3.8,0,0,1-4.27-5"/><path class="cls-4" d="M156.69,318.69a3.79,3.79,0,0,1-4.27-5"/><path class="cls-4" d="M158.07,318.11a3.8,3.8,0,0,1-4.28-5"/><path class="cls-4" d="M159.45,317.53a3.81,3.81,0,0,1-4.28-5"/><path class="cls-4" d="M160.82,316.94a3.79,3.79,0,0,1-4.27-5"/><path class="cls-4" d="M161.67,316.43a3.8,3.8,0,0,1-3.74-5.07"/><path class="cls-4" d="M162.36,315.82a3.83,3.83,0,0,1-3.06-5"/><path class="cls-4" d="M162.78,315a3.76,3.76,0,0,1-1.4-1.05,3.71,3.71,0,0,1-.85-3.23"/><path class="cls-5" d="M158.1,314.43c57.21-33.58,12.52-66.75-32.49-73.83S44.13,264.79,13.07,214.2c-33.84-55.09,32.24-143.26,112-169.73"/><path class="cls-6" d="M158.1,314.43c57.21-33.58,12.52-66.75-32.49-73.83S44.13,264.79,13.07,214.2c-33.84-55.09,32.24-143.26,112-169.73"/><path class="cls-9" d="M159.1,315.43c57.21-33.58,12.52-66.75-32.49-73.83S45.13,265.79,14.07,215.2c-33.84-55.09,32.24-143.26,112-169.73"/><path class="cls-7" d="M160.09,317.16h0a3.26,3.26,0,0,1-4.27-1.73h0a3.26,3.26,0,0,1,1.73-4.27h0"/></g></g></g></svg>