<svg xmlns="http://www.w3.org/2000/svg" viewBox="0 0 194.96 357.68"><defs><style>.cls-1{isolation:isolate;}.cls-2{fill:#fff;}.cls-3,.cls-4,.cls-5,.cls-6,.cls-7,.cls-8,.cls-9{fill:none;}.cls-3,.cls-4,.cls-5,.cls-8{stroke:#000;}.cls-3,.cls-5,.cls-8{stroke-miterlimit:10;}.cls-4,.cls-6,.cls-7,.cls-9{stroke-linecap:round;stroke-linejoin:round;}.cls-4{stroke-width:0.37px;}.cls-5{stroke-width:8px;}.cls-6{stroke:#fff;stroke-width:5px;}.cls-7{stroke:#15d1d8;}.cls-7,.cls-9{stroke-width:2px;mix-blend-mode:multiply;}.cls-8{stroke-width:1.5px;}.cls-9{stroke:#ef6baa;}</style></defs><g class="cls-1"><g id="Layer_2" data-name="Layer 2"><g id="Layer_1-2" data-name="Layer 1"><polygon class="cls-2" points="97.05 272.06 82.93 252.07 85.97 276.35 63.75 266.11 78.53 285.62 54.16 287.86 76.71 297.36 56.73 311.49 81.01 308.44 70.77 330.67 90.28 315.88 92.52 340.25 102.02 317.7 116.15 337.68 113.1 313.4 135.32 323.64 120.54 304.14 144.91 301.89 122.36 292.39 142.34 278.27 118.06 281.32 128.3 259.09 108.8 273.87 106.55 249.5 97.05 272.06"/><polygon class="cls-2" points="100.71 282.05 85.28 232.07 92.94 283.81 51.09 252.45 87.7 289.8 35.4 289.03 86.98 297.73 44.21 327.85 91.05 304.57 74.16 354.07 98.37 307.7 113.8 357.68 106.13 305.94 147.99 337.31 111.37 299.95 163.67 300.72 112.1 292.03 154.86 261.91 108.02 285.19 124.92 235.69 100.71 282.05"/><rect class="cls-3" x="102.83" y="293.49" width="21.19" height="6.43" rx="3.22" transform="translate(-106.72 67.72) rotate(-22.95)"/><path class="cls-4" d="M108.85,302.2a3.8,3.8,0,0,1-4.27-5"/><path class="cls-4" d="M110.23,301.61a3.79,3.79,0,0,1-4.27-5"/><path class="cls-4" d="M111.61,301a3.81,3.81,0,0,1-4.28-5"/><path class="cls-4" d="M113,300.45a3.81,3.81,0,0,1-4.28-5"/><path class="cls-4" d="M114.36,299.86a3.79,3.79,0,0,1-4.27-5"/><path class="cls-4" d="M115.74,299.28a3.8,3.8,0,0,1-4.27-5"/><path class="cls-4" d="M117.12,298.69a3.8,3.8,0,0,1-4.28-5"/><path class="cls-4" d="M118.5,298.11a3.8,3.8,0,0,1-4.28-5"/><path class="cls-4" d="M119.87,297.53a3.8,3.8,0,0,1-4.27-5"/><path class="cls-4" d="M121.25,296.94a3.79,3.79,0,0,1-4.27-5"/><path class="cls-4" d="M122.1,296.43a3.8,3.8,0,0,1-3.74-5.07"/><path class="cls-4" d="M122.79,295.82a3.83,3.83,0,0,1-3.06-5"/><path class="cls-4" d="M123.21,295a3.76,3.76,0,0,1-1.4-1.05,3.71,3.71,0,0,1-.85-3.23"/><path class="cls-5" d="M118.53,294.43c40.2-15.22,61.37-36.31,22.09-104.89-26.94-47-61.79-57-108.5-78.22S-4.95,30.27,74.85,3.8"/><path class="cls-6" d="M118.53,294.43c40.2-15.22,61.37-36.31,22.09-104.89-26.94-47-61.79-57-108.5-78.22S-4.95,30.27,74.85,3.8"/><path class="cls-7" d="M119.53,295.43c40.2-15.22,61.37-36.31,22.09-104.89-26.94-47-61.79-57-108.5-78.22S-3.95,31.27,75.85,4.8"/><path class="cls-8" d="M120.51,297.16h0a3.25,3.25,0,0,1-4.26-1.73h0a3.26,3.26,0,0,1,1.73-4.27h0"/><path class="cls-3" d="M77.73,284.57h0a3.23,3.23,0,0,0,1.71,4.22l13.82,5.85a3,3,0,0,0,4-1.81h0a3,3,0,0,0-1.47-4.11L82,282.86A3.23,3.23,0,0,0,77.73,284.57Z"/><path class="cls-4" d="M92.06,294.2a3.8,3.8,0,0,0,4.27-5"/><path class="cls-4" d="M90.68,293.61a3.79,3.79,0,0,0,4.27-5"/><path class="cls-4" d="M89.3,293a3.81,3.81,0,0,0,4.28-5"/><path class="cls-4" d="M87.93,292.45a3.8,3.8,0,0,0,4.27-5"/><path class="cls-4" d="M86.55,291.86a3.79,3.79,0,0,0,4.27-5"/><path class="cls-4" d="M85.17,291.28a3.8,3.8,0,0,0,4.27-5"/><path class="cls-4" d="M83.79,290.69a3.8,3.8,0,0,0,4.28-5"/><path class="cls-4" d="M82.41,290.11a3.8,3.8,0,0,0,4.28-5"/><path class="cls-4" d="M81,289.53a3.8,3.8,0,0,0,4.27-5"/><path class="cls-4" d="M79.66,288.94a3.79,3.79,0,0,0,4.27-5"/><path class="cls-4" d="M78.81,288.43a3.81,3.81,0,0,0,3.75-5.07"/><path class="cls-4" d="M78.12,287.82a3.83,3.83,0,0,0,3.06-5"/><path class="cls-4" d="M77.7,287a3.86,3.86,0,0,0,1.41-1.05A3.73,3.73,0,0,0,80,282.7"/><path class="cls-5" d="M82.39,286.43C43.88,271.35,54.77,243,99.78,236s67.82,14.59,85.77-42c18.55-58.49-10.38-151-90.18-177.5"/><path class="cls-6" d="M82.39,286.43C43.88,271.35,54.77,243,99.78,236s67.82,14.59,85.77-42c18.55-58.49-10.38-151-90.18-177.5"/><path class="cls-9" d="M81.39,287.43C42.88,272.35,53.77,244,98.78,237s67.82,14.59,85.77-42c18.55-58.49-10.38-151-90.18-177.5"/><path class="cls-8" d="M80.4,289.16h0a3.27,3.27,0,0,0,4.27-1.73h0a3.27,3.27,0,0,0-1.74-4.27h0"/></g></g></g></svg>