<svg fill="none" height="45" viewBox="0 0 218 45" width="218" xmlns="http://www.w3.org/2000/svg"><g fill="#000"><path d="m21 .75c0-.414214-.3358-.75-.75-.75h-7.4042c-.3013 0-.4796.33744-.3097.586358l2.953 4.327842c.4669.68431.2906 1.61756-.3937 2.08448s-1.6175.29069-2.0844-.39362l-4.17187-6.114134c-.20958-.30717-.55742-.490926-.92928-.490926h-6.40985c-.828427 0-1.5.671574-1.5 1.5v2.04614c0 .25767.13227.4973.350296.63462l9.208744 5.80001c.70096.44153.91136 1.36763.46986 2.06863-.44153.701-1.3677.9113-2.06867.4698l-7.385378-4.65155c-.24972-.15729-.574852.02218-.574852.3173v8.31505c0 .4142.335786.75.75.75h6c.82843 0 1.5.6716 1.5 1.5s-.67157 1.5-1.5 1.5h-6c-.414214 0-.75.3358-.75.75v7.2352c0 .6114.695127.9697 1.20473.6318 3.21508-2.1315 6.79078-3.7926 10.61607-4.883.3262-.0929.5542-.3892.5542-.7284v-8.2556c0-2.6924 2.1826-4.875 4.875-4.875h10.5c2.6924 0 4.875 2.1826 4.875 4.875v8.2556c0 .3392.228.6355.5542.7284 3.8253 1.0904 7.401 2.7515 10.6161 4.883.5096.3379 1.2047-.0204 1.2047-.6318v-7.2352c0-.4142-.3358-.75-.75-.75h-6c-.8284 0-1.5-.6716-1.5-1.5s.6716-1.5 1.5-1.5h6c.4142 0 .75-.3358.75-.75v-8.31511c0-.29512-.3251-.47459-.5749-.31731l-7.3853 4.65162c-.701.4415-1.6272.2311-2.0687-.4699-.4415-.7009-.2311-1.6271.4699-2.0686l9.2087-5.8c.218-.13732.3503-.37695.3503-.63462v-2.04608c0-.828427-.6716-1.5-1.5-1.5h-6.4098c-.3719 0-.7197.183756-.9293.490926l-4.1718 6.114134c-.4669.68431-1.4002.86054-2.0845.39362s-.8605-1.40017-.3936-2.08448l2.953-4.327842c.1698-.248918-.0085-.586358-.3098-.586358h-7.4042c-.4142 0-.75.335786-.75.75v3c0 .82843-.6716 1.5-1.5 1.5s-1.5-.67157-1.5-1.5z"/><path d="m59.4271 4.6499-6.222 35.7h9.4095l2.8815-16.5495 9.2055 16.5495h7.4205l6.222-35.7h-9.4095l-2.907 16.626-9.231-16.626z"/><path clip-rule="evenodd" d="m84.2373 40.3499 17.5687-35.7h9.435l5.151 35.7h-10.225l-.561-4.386h-9.0777l-2.142 4.386zm15.5805-11.5515h5.0742l-.918-8.976z" fill-rule="evenodd"/><path d="m122.342 40.3499 4.692-26.826h-8.186l1.53-8.874h26.52l-1.53 8.874h-8.185l-4.692 26.826z"/><path d="m143.383 40.3499 6.222-35.7h10.149l-6.222 35.7z"/><path d="m167.445 40.3499-5.508-35.7h10.379l1.938 19.992 8.542-19.992h10.302l-17.799 35.7z"/><path d="m195.165 4.6499-6.222 35.7h22.924l1.428-8.211h-12.775l1.071-6.1455h9.664l1.326-7.6245h-9.664l.969-5.508h12.393l1.428-8.211z"/><path d="m44.5418 37.0687c.2959.2764.4583.6654.4583 1.0703v5.361c0 .8284-.6716 1.5-1.5 1.5h-4.2051c-.3527 0-.6571-.2458-.7361-.5895-1.1184-4.8703-2.9653-9.7953-5.9309-13.5846-.232-.2966.0529-.7304.4096-.61 4.364 1.4736 8.2754 3.8364 11.5042 6.8528z"/><path d="m32.9973 45c.4623 0 .8149-.4143.7341-.8695-.9666-5.447-2.6774-10.7484-5.6015-14.7414-.2246-.3066-.5647-.5069-.941-.5602-1.5284-.2166-3.094-.3289-4.689-.3289s-3.1606.1123-4.689.3289c-.3763.0533-.7164.2536-.941.5602-2.9241 3.993-4.6349 9.2944-5.6015 14.7414-.0808.4552.2718.8695.7341.8695z"/><path d="m5.70512 45c.35266 0 .6571-.2458.73603-.5895 1.11844-4.8703 2.96535-9.7953 5.93095-13.5846.232-.2966-.0529-.7304-.4097-.61-4.36393 1.4737-8.27537 3.8364-11.504135 6.8528-.295852.2764-.458265.6654-.458265 1.0703v5.361c0 .8284.671574 1.5 1.5 1.5z"/><path d="m28.4386 22.9503c.2288.0351.4364-.141.4364-.3725v-7.5778c0-.6213-.5037-1.125-1.125-1.125h-10.5c-.6213 0-1.125.5037-1.125 1.125v7.5778c0 .2315.2076.4076.4364.3725 1.9359-.2964 3.9196-.4503 5.9386-.4503s4.0027.1539 5.9386.4503z"/></g></svg>
