<svg fill="none" height="45" viewBox="0 0 278 45" width="278" xmlns="http://www.w3.org/2000/svg"><g fill="#000"><path clip-rule="evenodd" d="m272.797 4.57003c.985.14883 1.919.53469 2.721 1.12437.749.58774 1.282 1.40776 1.514 2.33118.297 1.2773.297 2.60552 0 3.88282l-.404 2.3611-9.925 1.2518.555-3.3356h-5.824l-1.072 6.2065h6.364c1.295-.01 2.589.0878 3.868.2924 1.029.1455 2.01.5306 2.863 1.1243.784.565 1.355 1.3786 1.619 2.3087.288 1.2833.288 2.6145 0 3.8978l-1.169 6.7462c-.214 1.4067-.681 2.763-1.38 4.0027-.57.9846-1.363 1.8215-2.316 2.4436-.957.6033-2.025 1.0109-3.14 1.1994-1.3.2201-2.617.3254-3.936.3148h-7.66c-1.297.0133-2.591-.0921-3.868-.3148-.992-.1548-1.925-.5685-2.706-1.1994-.717-.6336-1.203-1.4882-1.379-2.4286-.222-1.3255-.192-2.681.09-3.9952l.404-2.4137 10.105-1.3267-.66 3.7928h6.484l1.154-6.5962h-6.364c-1.309.0152-2.617-.0953-3.905-.3298-1.012-.1587-1.967-.5742-2.773-1.2069-.733-.6305-1.238-1.4835-1.44-2.4286-.25-1.3327-.225-2.7027.075-4.0252l1.095-6.3114c.196-1.3735.659-2.69519 1.364-3.89033.587-.95295 1.388-1.75621 2.339-2.34618.964-.57037 2.027-.95433 3.133-1.13186 1.239-.2016 2.492-.29938 3.748-.29233h6.746c1.233-.0102 2.464.08762 3.68.29233zm-194.1693.00006c.9847.14883 1.9185.53469 2.721 1.12437.7492.58774 1.2818 1.40776 1.5142 2.33118.2963 1.2773.2963 2.60546 0 3.88276l-.4048 2.3612-9.9244 1.2518.5547-3.3356h-5.8242l-1.0719 6.2065h6.3639c1.2951-.01 2.5889.0878 3.8678.2923 1.0293.1455 2.0101.5307 2.8634 1.1244.7845.565 1.3551 1.3786 1.6191 2.3087.288 1.2833.288 2.6145 0 3.8978l-1.1694 6.7461c-.2136 1.4068-.681 2.763-1.3792 4.0028-.5702.9845-1.3636 1.8215-2.3162 2.4436-.9574.6033-2.0249 1.0109-3.1407 1.1993-1.3.2201-2.6168.3255-3.9353.3148h-7.6607c-1.2961.0133-2.5908-.092-3.8678-.3148-.9918-.1547-1.9252-.5684-2.7059-1.1993-.717-.6337-1.2024-1.4882-1.3793-2.4286-.2216-1.3256-.1911-2.681.09-3.9953l.4048-2.4136 10.1043-1.3267-.6597 3.7928h6.4839l1.1543-6.5963h-6.3639c-1.3093.0153-2.6171-.0952-3.9053-.3298-1.0124-.1587-1.9672-.5742-2.7734-1.2068-.7322-.6306-1.2377-1.4836-1.4392-2.4286-.2505-1.3328-.225-2.7027.075-4.0252l1.0943-6.3115c.1961-1.3734.6596-2.69513 1.3643-3.89027.5869-.95295 1.3876-1.75621 2.3386-2.34618.9643-.57037 2.0271-.95433 3.1333-1.13186 1.2389-.2016 2.4926-.29938 3.7478-.29233h6.7462c1.233-.0102 2.4645.08762 3.6804.29233zm8.1927.11632h26.4226l-1.582 9.03239h-8.043l-4.632 26.595h-10.3291l4.6324-26.595h-8.043zm29.3756 0-6.214 35.62739h10.337l6.206-35.62739zm27.81 14.12199 10.029-14.12199h9.437l-6.206 35.62739h-10.359l3.261-18.627-8.808 12.6753-4.662-12.4204-3.201 18.3721h-8.935l6.207-35.62739h7.713zm40.055-14.12199-4.677 26.90229h-6.087l4.685-26.90229h-10.321l-4.888 28.11659c-.284 1.3171-.305 2.6777-.06 4.0027.195.9494.705 1.8052 1.447 2.4287.82.6262 1.784 1.036 2.803 1.1918 1.289.2285 2.597.3364 3.906.3223h7.713c1.363.0117 2.725-.0962 4.07-.3223 1.143-.1808 2.238-.5859 3.223-1.1918.953-.6162 1.746-1.4482 2.316-2.4287.689-1.2423 1.148-2.598 1.357-4.0027l4.872-28.11659zm14.532 0h10.337l-4.632 26.59499h11.093l-1.574 9.0324h-21.43zm40.665 0-4.677 26.90229h-6.087l4.685-26.90229h-10.322l-4.887 28.11659c-.285 1.3171-.305 2.6777-.06 4.0027.195.9494.705 1.8052 1.447 2.4287.819.6262 1.784 1.036 2.803 1.1918 1.289.2285 2.597.3364 3.905.3223h7.714c1.363.0117 2.725-.0962 4.07-.3223 1.142-.1808 2.238-.5859 3.223-1.1918.952-.6161 1.746-1.4482 2.316-2.4287.688-1.2423 1.148-2.598 1.357-4.0027l4.872-28.11659z" fill-rule="evenodd"/><path d="m1.32.00000001h42.36c.3462-.00005028.6786.13592799.9255.37862999.2469.242703.3886.572697.3945.91887v4.23617c0 .37062 0 .55594-.0722.69749-.0634.12452-.1647.22576-.2892.28921-.1415.07212-.3268.07212-.6975.07212h-9.5011c-.8608.03418-1.7023.26508-2.46.675l-20.25 11.89501c-.7605.4098-1.6044.6406-2.46751.675h-8.20367c-.37062 0-.555931 0-.697491-.0721-.124518-.0635-.225755-.1647-.289201-.2892-.072128-.1416-.072128-.3269-.072128-.6975v-5.8249c0-.3706 0-.5559.072128-.6975.063446-.1245.164683-.2257.289201-.2892.14156-.0721.326871-.0721.697491-.0721h8.20367c.86261.038 1.70571.2686 2.46751.675l2.25 1.3125c.3478.1795.7336.2732 1.125.2732s.7772-.0937 1.125-.2732l2.88-1.695c.1228-.0629.2259-.1586.2979-.2763.072-.1178.1101-.2532.1101-.3912s-.0381-.2734-.1101-.3912c-.072-.1177-.1751-.2134-.2979-.2763l-6.06-3.56251c-.7591-.4065-1.5998-.63719-2.46-.675h-9.53118c-.37062 0-.555931 0-.697491-.07212-.124518-.06345-.225755-.16469-.289201-.28921-.072128-.14155-.072128-.32687-.072128-.69749v-4.23617c0-.350087.139071-.685833.386619-.933381.247547-.247548.583294-.38661899.933381-.38661899z"/><path d="m35.7375 11.9099c-.8626.038-1.7057.2686-2.4675.675l-20.25 11.9025c-.7591.4065-1.5998.6372-2.46.675h-9.50118c-.37062 0-.555931 0-.697491.0721-.124518.0635-.225755.1647-.289201.2892-.072128.1416-.072128.3269-.072128.6975v5.8249c0 .3706 0 .5559.072128.6975.063446.1245.164683.2257.289201.2892.14156.0721.326871.0721.697491.0721h8.20367c.86261-.038 1.70571-.2686 2.46751-.675l20.25-11.9025c.759-.4065 1.5997-.6372 2.46-.675h9.5011c.3707 0 .556 0 .6975-.0721.1245-.0635.2258-.1647.2892-.2892.0722-.1416.0722-.3269.0722-.6975v-5.8249c0-.3706 0-.5559-.0722-.6975-.0634-.1245-.1647-.2257-.2892-.2892-.1415-.0721-.3268-.0721-.6975-.0721z"/><path d="m35.7375 25.17c-.8626.038-1.7057.2686-2.4675.675l-20.25 11.895c-.7577.4099-1.5992.6408-2.46.675h-9.50118c-.37062 0-.555931 0-.697491.0721-.124518.0635-.225755.1647-.289201.2892-.072128.1416-.072128.3269-.072128.6975v4.2362c.00972345.3442.152842.6712.399137.9119s.576488.3763.920863.3781h42.36c.3481-.0019.6816-.1406.9285-.3861.247-.2455.3875-.5782.3915-.9264v-4.2362c0-.3706 0-.5559-.0722-.6975-.0634-.1245-.1647-.2257-.2892-.2892-.1415-.0721-.3268-.0721-.6975-.0721h-9.5311c-.8608-.0342-1.7023-.2651-2.46-.675l-6.06-3.555c-.1248-.0622-.2298-.158-.3032-.2765-.0734-.1186-.1123-.2553-.1123-.3947 0-.1395.0389-.2762.1123-.3947.0734-.1186.1784-.2144.3032-.2766l2.88-1.6875c.3478-.1795.7335-.2732 1.125-.2732.3914 0 .7772.0937 1.125.2732l2.25 1.305c.7604.4098 1.6043.6407 2.4675.675h8.2036c.3707 0 .556 0 .6975-.0721.1245-.0635.2258-.1647.2892-.2892.0722-.1416.0722-.3269.0722-.6975v-5.8249c0-.3706 0-.5559-.0722-.6974-.0634-.1246-.1647-.2258-.2892-.2893-.1415-.0721-.3268-.0721-.6975-.0721z"/></g></svg>