<svg viewBox="0 0 229.28 44.13" xmlns="http://www.w3.org/2000/svg"><path d="m62.33 28.49-.65 3.72h6.4l1.12-6.47h-6.2a20.21 20.21 0 0 1 -3.84-.33 5.92 5.92 0 0 1 -2.72-1.18 4.37 4.37 0 0 1 -1.44-2.39 9.6 9.6 0 0 1 .08-3.94l1.07-6.2a10.31 10.31 0 0 1 1.34-3.82 7.09 7.09 0 0 1 2.29-2.3 8.58 8.58 0 0 1 3.08-1.11 22.22 22.22 0 0 1 3.65-.29h6.62a20.79 20.79 0 0 1 3.61.29 6 6 0 0 1 2.67 1.1 4.23 4.23 0 0 1 1.49 2.27 8.64 8.64 0 0 1 0 3.81l-.41 2.35-9.74 1.2.55-3.27h-5.72l-1 6.09h6.25a23 23 0 0 1 3.79.29 6.55 6.55 0 0 1 2.81 1.1 4.19 4.19 0 0 1 1.55 2.26 8.72 8.72 0 0 1 0 3.82l-1.15 6.64a11.74 11.74 0 0 1 -1.35 3.93 7.09 7.09 0 0 1 -2.27 2.4 8.4 8.4 0 0 1 -3.09 1.18 22.69 22.69 0 0 1 -3.86.31h-7.52a21.3 21.3 0 0 1 -3.8-.31 5.58 5.58 0 0 1 -2.66-1.18 4.27 4.27 0 0 1 -1.35-2.38 10.49 10.49 0 0 1 .07-3.92l.4-2.38z"/><path d="m86.18 39.55 4.55-26.1h-7.89l1.54-8.87h25.93l-1.55 8.87h-7.89l-4.55 26.1z"/><path d="m107.11 39.55 6.09-35h16.8a19 19 0 0 1 3.82.35 6.21 6.21 0 0 1 2.73 1.24 4.47 4.47 0 0 1 1.45 2.43 9.28 9.28 0 0 1 0 3.88l-1.17 6.79a11.63 11.63 0 0 1 -.79 2.63 7.6 7.6 0 0 1 -1.24 2 6.44 6.44 0 0 1 -1.74 1.36 12.47 12.47 0 0 1 -2.12.89h-.3l5.07 13.46h-11.12l-3.87-12h-1.4l-2.07 12zm13.56-19.63h4.27a2.49 2.49 0 0 0 .76-.11 1.91 1.91 0 0 0 .6-.32 1.31 1.31 0 0 0 .42-.51 4.17 4.17 0 0 0 .25-.68l.64-3.8a1.86 1.86 0 0 0 0-.67 1.1 1.1 0 0 0 -.23-.5 1.19 1.19 0 0 0 -.48-.32 2.18 2.18 0 0 0 -.72-.11h-4.28z"/><path d="m135.93 39.55 17.07-34.97h9.51l4.92 35h-10.2l-.5-4.17h-8.64l-2 4.17zm15.39-11.29h4.77l-.83-8.62z"/><path d="m175.86 4.58h12.79a17.82 17.82 0 0 1 4.38.5 11 11 0 0 1 3.43 1.5 8.15 8.15 0 0 1 2.38 2.54 12.23 12.23 0 0 1 1.4 3.59 18.74 18.74 0 0 1 .42 4.66 37.48 37.48 0 0 1 -.6 5.77 38.49 38.49 0 0 1 -1.42 5.86 20.59 20.59 0 0 1 -2 4.34 12.79 12.79 0 0 1 -2.52 3 11.28 11.28 0 0 1 -3 1.9 14.22 14.22 0 0 1 -3.61 1 28.66 28.66 0 0 1 -4.15.29h-13.59zm8.32 26.55a6.1 6.1 0 0 0 1.41-.15 3.14 3.14 0 0 0 1.2-.56 4.12 4.12 0 0 0 1-1.09 9.58 9.58 0 0 0 .9-1.71 16 16 0 0 0 .8-2.47c.24-1 .47-2.06.69-3.31s.36-2.3.44-3.22a17.68 17.68 0 0 0 .05-2.36 4.88 4.88 0 0 0 -.35-1.62 2.91 2.91 0 0 0 -.7-1 2.11 2.11 0 0 0 -1-.5 6.16 6.16 0 0 0 -1.36-.13h-2.75l-3.17 18.13z"/><path d="m197.74 39.55 17.11-35h9.51l4.92 35h-10.28l-.5-4.17h-8.6l-2 4.17zm15.39-11.29h4.77l-.83-8.62z"/><path d="m42.78 0h-41.43a1.36 1.36 0 0 0 -1.35 1.35v5h44.13v-5a1.35 1.35 0 0 0 -1.35-1.35z"/><path d="m0 19.93h10.16a.26.26 0 0 1 .26.26v3.75a.26.26 0 0 1 -.26.26h-10.16v8.21h44.13v-8.21h-10.13a.26.26 0 0 1 -.26-.26v-3.75a.26.26 0 0 1 .26-.26h10.13v-8.21h-44.13zm15.1.26a.26.26 0 0 1 .26-.26h13.41a.26.26 0 0 1 .26.26v3.75a.26.26 0 0 1 -.26.26h-13.41a.26.26 0 0 1 -.26-.26z"/><path d="m0 42.78a1.35 1.35 0 0 0 1.35 1.35h41.43a1.34 1.34 0 0 0 1.35-1.35v-5h-44.13z"/></svg>