<svg viewBox="0 0 298.19 60" xmlns="http://www.w3.org/2000/svg">
  <path fill="#000000" d="m60 6.53v-4.69a1.84 1.84 0 0 0 -1.84-1.84h-56.32a1.84 1.84 0 0 0 -1.84 1.84v43.69h43.73v7.06h-43.73v5.57a1.84 1.84 0 0 0 1.84 1.84h56.32a1.84 1.84 0 0 0 1.84-1.84v-44.57h-38.19v-7.06zm-4.72 33.06h-44.49v-7.06h44.49zm-11-20.06v7.06h-39.28v-7.06z" />
  <path d="m108.31 9.19a8.2 8.2 0 0 0 -3.63-1.5 28.17 28.17 0 0 0 -4.91-.39h-9a30.08 30.08 0 0 0 -5 .39 11.92 11.92 0 0 0 -4.15 1.51 9.62 9.62 0 0 0 -3.12 3.13 13.91 13.91 0 0 0 -1.82 5.19l-1.46 8.42a13.05 13.05 0 0 0 -.1 5.37 5.9 5.9 0 0 0 1.88 3.24 8 8 0 0 0 3.7 1.61 27.24 27.24 0 0 0 5.3.44h8.49l-1.53 8.8h-8.74l.88-5.06-13.48 1.76-.54 3.23a14.25 14.25 0 0 0 -.08 5.33 5.79 5.79 0 0 0 1.83 3.24 7.79 7.79 0 0 0 3.62 1.6 28.18 28.18 0 0 0 5.16.42h10.18a30.19 30.19 0 0 0 5.21-.42 11.61 11.61 0 0 0 4.19-1.6 9.79 9.79 0 0 0 3.09-3.26 15.46 15.46 0 0 0 1.83-5.35l1.57-9a11.65 11.65 0 0 0 -.06-5.19 5.65 5.65 0 0 0 -2.1-3.07 8.86 8.86 0 0 0 -3.82-1.5 31.15 31.15 0 0 0 -5.16-.39h-8.45l1.43-8.28h7.77l-.75 4.44 13.25-1.66.54-3.16a11.71 11.71 0 0 0 0-5.17 5.78 5.78 0 0 0 -2.02-3.12z"/><path d="m150.33 7.84h-35.25l-2.1 12.06h10.73l-6.18 35.48h13.78l6.18-35.48h10.73z"/><path d="m178.37 37.08a16.45 16.45 0 0 0 2.89-1.21 8.52 8.52 0 0 0 2.36-1.87 10.21 10.21 0 0 0 1.69-2.68 15.68 15.68 0 0 0 1.07-3.56l1.6-9.24a12.89 12.89 0 0 0 0-5.28 6.09 6.09 0 0 0 -1.98-3.24 8.42 8.42 0 0 0 -3.71-1.68 25.36 25.36 0 0 0 -5.2-.48h-22.83l-8.26 47.54h13.78l2.82-16.26h1.9l5.27 16.26h15.11l-6.88-18.3zm-4.52-15.76-.85 5.16a5 5 0 0 1 -.34.94 1.8 1.8 0 0 1 -.56.69 2.62 2.62 0 0 1 -.81.43 3.35 3.35 0 0 1 -1 .15h-5.8l1.66-9.54h5.81a2.84 2.84 0 0 1 1 .15 1.72 1.72 0 0 1 .65.43 1.59 1.59 0 0 1 .32.68 2.75 2.75 0 0 1 -.08.91z"/><path d="m208.42 7.84-23.26 47.54h13.84l2.75-5.67h11.74l.68 5.67h13.83l-6.65-47.54zm-2.34 32.16 5.36-11.71 1.12 11.71z"/><path d="m267.97 7.84h-35.24l-2.11 12.06h10.73l-6.18 35.48h13.79l6.18-35.48h10.73z"/><path d="m291.5 7.84h-12.93l-23.26 47.54h13.78l2.75-5.67h11.75l.68 5.67h13.92zm-15.28 32.16 5.37-11.71 1.12 11.71z"/>
</svg>