<svg fill="none" height="45" viewBox="0 0 204 45" width="204" xmlns="http://www.w3.org/2000/svg"><g fill="#000"><path d="m1.38151 0h42.24439c.3592.00975854.7003.159843.9501.418086.2499.258243.3887.604094.3866.963424v28.55779c0 .3706 0 .5559-.0722.6975-.0634.1245-.1646.2257-.2892.2892-.1415.0721-.3268.0721-.6975.0721h-6.6731c-.6519 0-.9779 0-1.1484-.1188-.1587-.1106-.2469-.2525-.2759-.4437-.0312-.2055.1238-.5199.4338-1.1486.9276-1.8814 1.4624-3.9397 1.563-6.0488.1322-2.7695-.4892-5.523-1.7979-7.9674-1.3088-2.4443-3.2559-4.488-5.6341-5.91336-2.3782-1.4254-5.0985-2.17917-7.8711-2.18105h-21.44118c-.370621 0-.555932 0-.697491-.07213-.124519-.06345-.225756-.16468-.2892011-.2892-.0721279-.14156-.0721279-.32687-.0721279-.6975v-4.73605c0-.3664.145552-.717791.404635-.976875.259084-.259083.610475-.404635.976875-.404635z"/><path clip-rule="evenodd" d="m202.785 8.10669c-.249-.92928-.793-1.75234-1.551-2.3447-.834-.61095-1.802-1.01182-2.824-1.16861-1.279-.22128-2.575-.32658-3.873-.31463h-8.6c-1.325-.00797-2.648.09729-3.955.31463-1.136.18122-2.227.57787-3.214 1.16861-.953.58359-1.752 1.38773-2.329 2.3447-.687 1.17814-1.15 2.47361-1.364 3.82051l-3.633 20.8027c-.275 1.3079-.287 2.6574-.037 3.9702.191.9489.692 1.8077 1.423 2.4421.805.6385 1.759 1.0636 2.772 1.2361 1.312.242 2.644.3574 3.977.3445h8.6c1.371.0092 2.74-.1061 4.09-.3445 1.147-.2039 2.246-.6233 3.236-1.2361.957-.619 1.753-1.4559 2.323-2.4421.688-1.2294 1.142-2.5754 1.341-3.9702l3.67-20.8027c.279-1.2604.261-2.56832-.052-3.82051zm-13.799 23.48451h-7.019l3.206-18.1658h7.019z" fill-rule="evenodd"/><path d="m54.7802 4.68718h26.4226l-1.5816 9.03242h-8.043l-4.6324 26.5949h-10.3291l4.6324-26.5949h-8.043z"/><path d="m95.6776 31.5894 4.6774-26.90222h10.359l-4.872 28.11662c-.21 1.4046-.669 2.7604-1.357 4.0027-.571.9804-1.364 1.8125-2.316 2.4286-.986.606-2.081 1.011-3.2234 1.1918-1.3446.2262-2.7065.334-4.0701.3224h-7.7131c-1.309.014-2.6164-.0939-3.9054-.3224-1.0196-.1557-1.9836-.5656-2.8033-1.1918-.742-.6235-1.2518-1.4792-1.4467-2.4286-.2451-1.3251-.2248-2.6856.06-4.0027l4.8872-28.11662h10.3216l-4.6848 26.90222z"/><path clip-rule="evenodd" d="m108.713 40.2837 6.194-35.59531h17.086c1.303-.01272 2.605.10654 3.885.35595 1.014.18727 1.967.62025 2.776 1.26109.746.64234 1.264 1.50959 1.475 2.47133.278 1.30064.278 2.64534 0 3.94604l-1.19 6.9054c-.162.9202-.431 1.8181-.804 2.6748-.312.7393-.737 1.4256-1.261 2.034-.506.5595-1.104 1.0274-1.769 1.3831-.69.3675-1.411.6705-2.156.9052h-.306l5.157 13.6889h-11.309l-3.936-12.2041h-1.424l-2.105 12.2041zm13.791-19.9639h4.342c.262.0029.523-.0348.773-.1119.222-.0711.428-.1813.611-.3254.184-.1336.331-.3121.427-.5187.104-.2227.189-.4541.254-.6915l.651-3.8647c.041-.2252.041-.4561 0-.6814-.034-.1866-.114-.3615-.234-.5085-.134-.1469-.301-.2586-.488-.3254-.236-.0781-.484-.1159-.732-.1119h-4.353z" fill-rule="evenodd"/><path clip-rule="evenodd" d="m169.936 6.45711c.693.67397 1.162 1.5454 1.341 2.49539.23 1.2588.227 2.5489-.007 3.8068l-.412 2.2481c-.136.8258-.352 1.6364-.644 2.4205-.272.7052-.637 1.3707-1.087 1.9783-.445.6052-.981 1.1384-1.588 1.5812-.644.4696-1.353.8431-2.105 1.109.728.2352 1.401.615 1.978 1.1166.499.4608.881 1.0336 1.116 1.6711.261.7205.39 1.4819.382 2.2481.001.8946-.08 1.7875-.24 2.6677l-.382 2.3455c-.207 1.3444-.64 2.6441-1.281 3.8443-.55 1.0018-1.318 1.8673-2.247 2.5329-.927.6445-1.966 1.1097-3.064 1.3713-1.247.2901-2.525.431-3.805.4197h-18.369l6.18-35.625h17.979c1.234-.01537 2.465.12563 3.663.41965.962.22883 1.853.69222 2.592 1.34886zm-11.776 24.18959.48-2.6977c.08-.2555.108-.5244.082-.7908-.026-.2665-.105-.525-.232-.7604-.201-.1816-.439-.3167-.698-.3957s-.532-.1-.8-.0614h-4.63l-1.169 6.6918h4.63c.327.0054.652-.0375.966-.1274.252-.0748.487-.1996.69-.3671.191-.1721.342-.3845.442-.622.116-.2785.196-.5706.239-.8693zm2.285-14.0656.36-2.2481h-.023c.069-.2768.099-.5618.09-.8468-.018-.2203-.099-.4309-.232-.607-.151-.1764-.348-.3064-.569-.3747-.307-.0909-.625-.1339-.944-.1274h-4.398l-1.071 6.2647h4.397c.332.0047.662-.0382.982-.1274.252-.0703.487-.1929.689-.3597.192-.1715.343-.384.442-.6219.13-.3049.223-.6245.277-.9517z" fill-rule="evenodd"/><path d="m7.17639 22.5001c-.00256-2.3621.54218-4.6833 1.58034-6.7854.31089-.6296.46637-.9445.43528-1.1499-.02895-.1914-.1171-.3332-.27584-.4439-.17056-.1189-.49697-.1189-1.14978-.1189h-6.70757c-.37062 0-.555932 0-.697491.0721-.124519.0634-.225756.1647-.2892011.2892-.0721279.1416-.0721279.3269-.0721279.6975v28.5652c-.00000267.1811.0357839.3604.105303.5276.069518.1672.171398.319.299781.4467.128384.1277.28074.2287.44831.2973.167566.0687.347046.1035.528116.1025h42.24439c.3644 0 .7139-.1448.9716-.4025.2576-.2576.4024-.6071.4024-.9716v-4.7435c0-.3706 0-.5559-.0721-.6975-.0635-.1245-.1647-.2257-.2892-.2892-.1416-.0721-.3269-.0721-.6974-.0721h-21.4412c-4.0641 0-7.9617-1.6145-10.8354-4.4882-2.87377-2.8737-4.48821-6.7713-4.48821-10.8354z"/><path clip-rule="evenodd" d="m33.6413 22.1118c-1.3762.5271-2.8142.8759-4.279 1.038.0518-.5748.0367-1.1537-.0448-1.725 1.4463-1.2451 2.6886-2.7091 3.6815-4.3387.2347-.3704.3127-.8188.2169-1.2467-.096-.4278-.358-.8-.7284-1.0347s-.8188-.3126-1.2466-.2167c-.4279.0959-.8001.3579-1.0348.7282-.6476 1.0508-1.4117 2.0253-2.2776 2.9049-.4049-.5169-.8829-.9722-1.4188-1.3516.0264-.9713-.0512-1.9426-.2315-2.8974-.2446-1.2844-.5969-2.5459-1.053-3.7712-.0741-.20426-.1879-.39186-.3347-.55203-.1469-.16017-.3239-.28976-.5209-.38135-.1971-.09159-.4103-.14336-.6274-.15234-.2171-.00899-.4338.02499-.6378.09998-.2281.07893-.4351.20924-.6048.38085-.223.2234-.3779.50559-.4466.81369-.0688.308-.0486.6293.0582.9263.1494.3958.2763.7468.3884 1.1425.1642.5302.2987 1.0306.4107 1.4936.1145.5646.1943 1.1357.2389 1.71-.5719-.0618-1.1496-.0468-1.7175.0449-1.2473-1.4491-2.7137-2.6938-4.3462-3.6891-.3707-.2132-.8096-.2749-1.2248-.1721-.4152.1027-.7746.362-1.0031.7235-.2285.3616-.3084.7975-.2231 1.2166.0854.4191.3295.789.6812 1.0324 1.0513.6359 2.0281 1.3873 2.9124 2.2403-.5177.4065-.9752.8842-1.3591 1.4188-2.2852-.0011-4.5492.4375-6.6686 1.2919-.41193.1506-.74721.4586-.93207.8563s-.20415.8526-.05363 1.2645c.15052.412.45852.7473.8562.9321.3977.1849.8526.2042 1.2646.0537 1.3966-.5418 2.8574-.9007 4.3461-1.0679 0 .112-.0093.224-.0187.336-.0092.112-.0186.2242-.0186.3361.0008.3501.0282.6996.0821 1.0455-1.4507 1.2427-2.6957 2.707-3.689 4.3386-.1596.2499-.249.5381-.2588.8344-.0097.2964.0605.5898.2034.8496s.3531.4763.6086.6268c.2555.1504.5468.2293.8433.2282.278.0046.5527-.0616.7983-.1922.2455-.1306.4539-.3214.6056-.5545.6338-1.0504 1.3855-2.025 2.2403-2.9049.4105.5139.8877.971 1.4188 1.3591-.0271.9692.0531 1.9384.239 2.89.241 1.2851.5933 2.5469 1.0529 3.7711.12.3119.3323.5798.6084.7679.2762.1881.6032.2876.9374.285.1934.0006.3854-.0323.5675-.097.224-.0865.4275-.2188.5975-.3884.2238-.2212.3795-.5021.4483-.8092.0688-.3072.048-.6276-.06-.9233-.0337-.0959-.0671-.1884-.0998-.2792l-.0019-.0052c-.1041-.2889-.2018-.5601-.2866-.8656-.1643-.5302-.2988-1.023-.4033-1.4935-.126-.5385-.2158-1.0849-.2688-1.6354h.6721c.3523.0017.7043-.0233 1.0529-.0747 1.2421 1.4463 2.7037 2.6886 4.3312 3.6816.3704.2347.8188.3126 1.2466.2167.4279-.0959.8001-.3579 1.0348-.7283.2347-.3703.3126-.8188.2167-1.2466s-.3579-.8-.7283-1.0347c-1.0495-.6494-2.0238-1.4133-2.9049-2.2777.5175-.4067.975-.8843 1.3591-1.4188h.3809c2.1523-.0652 4.277-.5023 6.2803-1.2919.3932-.1639.7082-.473.8796-.863.1715-.39.1862-.831.0413-1.2316-.1452-.4006-.4389-.7299-.8203-.9197s-.8212-.2255-1.2282-.0997zm-7.4677.3883v.2987c-.0365.4873-.1703.9624-.3935 1.3972s-.5312.8205-.9058 1.1343c-.1425.122-.2948.2319-.4556.3286-.5827.355-1.2517.5436-1.9341.5451h-.2987c-.4855-.0365-.9588-.1697-1.3922-.3915-.4335-.2218-.8182-.5279-1.1318-.9004-.1222-.1467-.2344-.3014-.3361-.463-.355-.5827-.5436-1.2517-.5451-1.9341v-.2987c.0147-.1888.0446-.3761.0896-.5601.1838-.7649.6046-1.4523 1.2023-1.9639.1481-.1204.3026-.2326.463-.3361.5827-.355 1.2517-.5436 1.9341-.5451h.2987c.1913.0147.381.0446.5675.0896.766.1859 1.4534.6093 1.964 1.2097.122.1425.2319.2949.3286.4556.3655.5797.5645 1.2488.575 1.9341z" fill-rule="evenodd"/></g></svg>
