<svg xmlns="http://www.w3.org/2000/svg" viewBox="0 0 129.35 282.27"><defs><style>.cls-1{isolation:isolate;}.cls-2{fill:#fff;}.cls-3,.cls-4,.cls-5,.cls-6,.cls-7,.cls-8,.cls-9{fill:none;}.cls-3,.cls-4,.cls-5,.cls-8{stroke:#000;}.cls-3,.cls-5,.cls-8{stroke-miterlimit:10;}.cls-4,.cls-6,.cls-7,.cls-9{stroke-linecap:round;stroke-linejoin:round;}.cls-4{stroke-width:0.37px;}.cls-5{stroke-width:8px;}.cls-6{stroke:#fff;stroke-width:5px;}.cls-7{stroke:#ef6baa;}.cls-7,.cls-9{stroke-width:2px;mix-blend-mode:multiply;}.cls-8{stroke-width:1.5px;}.cls-9{stroke:#15d1d8;}</style></defs><g class="cls-1"><g id="Layer_2" data-name="Layer 2"><g id="Layer_1-2" data-name="Layer 1"><polygon class="cls-2" points="70.88 197.77 87.81 180.1 81.2 203.66 104.7 196.81 87.2 213.92 110.97 219.74 87.26 225.8 104.94 242.73 81.37 236.13 88.22 259.62 71.11 242.12 65.3 265.89 59.23 242.18 42.31 259.86 48.91 236.29 25.41 243.14 42.91 226.03 19.14 220.22 42.85 214.15 25.17 197.23 48.74 203.83 41.89 180.34 59 197.83 64.82 174.06 70.88 197.77"/><polygon class="cls-2" points="65.79 207.12 88.43 159.97 73.21 210.01 119.24 185.17 77.51 216.71 129.35 223.67 77.06 224.65 114.9 260.75 72.02 230.81 81.42 282.27 64.32 232.84 41.68 279.99 56.9 229.95 10.87 254.78 52.6 223.25 0.76 216.29 53.05 215.3 15.21 179.2 58.09 209.14 48.7 157.69 65.79 207.12"/><path class="cls-3" d="M86.47,208.87h0a3.23,3.23,0,0,1,.13,4.55L76.29,224.33a3,3,0,0,1-4.37-.06h0a3,3,0,0,1-.31-4.36L81.92,209A3.24,3.24,0,0,1,86.47,208.87Z"/><path class="cls-4" d="M77.21,223.44a3.79,3.79,0,0,1-5.92-2.86"/><path class="cls-4" d="M78.24,222.35a3.79,3.79,0,0,1-5.92-2.86"/><path class="cls-4" d="M79.27,221.26a3.79,3.79,0,0,1-5.92-2.86"/><path class="cls-4" d="M80.29,220.18a3.81,3.81,0,0,1-5.92-2.87"/><path class="cls-4" d="M81.32,219.09a3.8,3.8,0,0,1-5.92-2.86"/><path class="cls-4" d="M82.35,218a3.79,3.79,0,0,1-5.92-2.86"/><path class="cls-4" d="M83.38,216.92a3.8,3.8,0,0,1-5.92-2.87"/><path class="cls-4" d="M84.41,215.83A3.8,3.8,0,0,1,78.48,213"/><path class="cls-4" d="M85.43,214.74a3.8,3.8,0,0,1-5.92-2.86"/><path class="cls-4" d="M86.46,213.65a3.79,3.79,0,0,1-5.92-2.86"/><path class="cls-4" d="M87,212.84a3.81,3.81,0,0,1-5.46-3.14"/><path class="cls-4" d="M87.42,212a3.8,3.8,0,0,1-4.82-3.38"/><path class="cls-4" d="M87.47,211.06a3.85,3.85,0,0,1-3.78-3"/><path class="cls-5" d="M83.08,212.6c59.23-59.29,5.51-80.64-.13-55-6.18,28.12,66-.6,33.1-44.11C97,88.31,75.47,69.61,50.32,65.58"/><path class="cls-6" d="M83.08,212.6c59.23-59.29,5.51-80.64-.13-55-6.18,28.12,66-.6,33.1-44.11C97,88.31,75.47,69.61,50.32,65.58"/><path class="cls-7" d="M108.49,155.52c-6.67-12.28-22.7-9.82-25.54,3.11-6.18,28.12,66-.6,33.1-44.11C97,89.31,75.47,70.61,50.32,66.58"/><path class="cls-7" d="M83.08,213.6c19.6-25.14,27.4-32.76,27-46.8"/><path class="cls-8" d="M86,214.31h0a3.27,3.27,0,0,1-4.61.06h0a3.25,3.25,0,0,1-.06-4.6h0"/><rect class="cls-3" x="50.45" y="208.58" width="6.43" height="21.19" rx="3.22" transform="translate(-139.03 101.76) rotate(-44.89)"/><path class="cls-4" d="M55.82,226a3.8,3.8,0,0,0,5.85-3"/><path class="cls-4" d="M54.77,224.92a3.79,3.79,0,0,0,5.84-3"/><path class="cls-4" d="M53.71,223.86a3.8,3.8,0,0,0,5.85-3"/><path class="cls-4" d="M52.66,222.8a3.79,3.79,0,0,0,5.84-3"/><path class="cls-4" d="M51.6,221.74a3.79,3.79,0,0,0,5.84-3"/><path class="cls-4" d="M50.54,220.68a3.8,3.8,0,0,0,5.85-3"/><path class="cls-4" d="M49.49,219.62a3.79,3.79,0,0,0,5.84-3"/><path class="cls-4" d="M48.43,218.56a3.8,3.8,0,0,0,5.85-3"/><path class="cls-4" d="M47.38,217.5a3.79,3.79,0,0,0,5.84-3"/><path class="cls-4" d="M46.32,216.44a3.79,3.79,0,0,0,5.84-3"/><path class="cls-4" d="M45.73,215.64a3.8,3.8,0,0,0,5.38-3.27"/><path class="cls-4" d="M45.32,214.82a3.82,3.82,0,0,0,4.73-3.51"/><path class="cls-4" d="M45.25,213.88a3.77,3.77,0,0,0,1.7-.44,3.71,3.71,0,0,0,2-2.67"/><path class="cls-5" d="M49.8,215.14c-35.71-35.65-22.28-39.61,30.41-80.83,52.05-40.72-128.29,15-60.94,12.33,51.26-2,77.41-89,13.5-143.6"/><path class="cls-6" d="M49.8,215.14c-35.71-35.65-22.28-39.61,30.41-80.83,52.05-40.72-128.29,15-60.94,12.33,51.26-2,77.41-89,13.5-143.6"/><path class="cls-8" d="M46.92,216.92h0a3.27,3.27,0,0,0,4.61,0h0a3.25,3.25,0,0,0,0-4.6h0"/><path class="cls-9" d="M62.77,117.27C80.85,76,67.74,33.43,31.82,2.73"/><path class="cls-9" d="M48.84,214.83C13.14,179.18,26.57,175.21,79.26,134,131.31,93.28-49,149,18.32,146.33,36.66,145.6,47.78,139,56.72,127"/></g></g></g></svg>