<svg xmlns="http://www.w3.org/2000/svg" viewBox="0 0 267.11 310.3"><defs><style>.cls-1{isolation:isolate;}.cls-2,.cls-3,.cls-4,.cls-5,.cls-6,.cls-7,.cls-8{fill:none;}.cls-2,.cls-3,.cls-4,.cls-6{stroke:#000;}.cls-2,.cls-4,.cls-6{stroke-miterlimit:10;}.cls-3,.cls-5,.cls-7,.cls-8{stroke-linecap:round;stroke-linejoin:round;}.cls-3{stroke-width:0.37px;}.cls-4{stroke-width:8px;}.cls-5{stroke:#fff;stroke-width:5px;}.cls-6{stroke-width:1.5px;}.cls-7{stroke:#15d1d8;}.cls-7,.cls-8{stroke-width:2px;mix-blend-mode:multiply;}.cls-8{stroke:#ef6baa;}</style></defs><g class="cls-1"><g id="Layer_2" data-name="Layer 2"><g id="Layer_1-2" data-name="Layer 1"><path class="cls-2" d="M108.59,23.4h0a3.23,3.23,0,0,1,1.4-4.33l13.37-6.81a3,3,0,0,1,4.1,1.52h0A3,3,0,0,1,126.28,18L112.91,24.8A3.22,3.22,0,0,1,108.59,23.4Z"/><path class="cls-3" d="M122.19,12.78a3.8,3.8,0,0,1,4.62,4.68"/><path class="cls-3" d="M120.86,13.46a3.8,3.8,0,0,1,4.62,4.68"/><path class="cls-3" d="M119.53,14.14a3.8,3.8,0,0,1,4.62,4.68"/><path class="cls-3" d="M118.19,14.82a3.8,3.8,0,0,1,4.62,4.68"/><path class="cls-3" d="M116.86,15.5a3.8,3.8,0,0,1,4.62,4.68"/><path class="cls-3" d="M115.53,16.18a3.8,3.8,0,0,1,4.62,4.68"/><path class="cls-3" d="M114.2,16.86a3.79,3.79,0,0,1,4.61,4.68"/><path class="cls-3" d="M112.86,17.54a3.8,3.8,0,0,1,4.62,4.68"/><path class="cls-3" d="M111.53,18.22a3.8,3.8,0,0,1,4.62,4.68"/><path class="cls-3" d="M110.2,18.9a3.8,3.8,0,0,1,4.62,4.68"/><path class="cls-3" d="M109.39,19.47a3.81,3.81,0,0,1,4.09,4.79"/><path class="cls-3" d="M108.74,20.13a3.83,3.83,0,0,1,3.41,4.81"/><path class="cls-3" d="M108.38,21a3.86,3.86,0,0,1,1.48.95,3.7,3.7,0,0,1,1.07,3.15"/><path class="cls-4" d="M113.1,21.22C48.18,54.08,15.32,91.84,59.36,157.46c30.21,45,124.76,21,172.85,38.86s42.72,78.22-35,110.28"/><path class="cls-5" d="M113.1,21.22C48.18,54.08,15.32,91.84,59.36,157.46c30.21,45,124.76,21,172.85,38.86s42.72,78.22-35,110.28"/><path class="cls-6" d="M110.92,18.63h0a3.27,3.27,0,0,1,4.38,1.43h0a3.27,3.27,0,0,1-1.43,4.38h0"/><path class="cls-7" d="M113.1,22.22C48.18,55.08,15.32,92.84,59.36,158.46c30.21,45,124.76,21,172.85,38.86s42.72,78.22-35,110.28"/><path class="cls-2" d="M153.05,10.7h0a3.22,3.22,0,0,0-1.74-4.2L137.46.73a3,3,0,0,0-4,1.83h0A3,3,0,0,0,135,6.67l13.86,5.77A3.23,3.23,0,0,0,153.05,10.7Z"/><path class="cls-3" d="M138.66,1.17a3.73,3.73,0,0,0-3.57,1.28,3.72,3.72,0,0,0-.67,3.74"/><path class="cls-3" d="M140,1.74A3.72,3.72,0,0,0,136.47,3a3.72,3.72,0,0,0-.67,3.74"/><path class="cls-3" d="M141.42,2.32a3.79,3.79,0,0,0-4.24,5"/><path class="cls-3" d="M142.81,2.89a3.8,3.8,0,0,0-4.25,5"/><path class="cls-3" d="M144.19,3.47a3.72,3.72,0,0,0-3.58,1.28,3.75,3.75,0,0,0-.67,3.74"/><path class="cls-3" d="M145.57,4A3.72,3.72,0,0,0,142,5.33a3.74,3.74,0,0,0-.68,3.74"/><path class="cls-3" d="M147,4.62a3.7,3.7,0,0,0-3.57,1.28,3.72,3.72,0,0,0-.67,3.74"/><path class="cls-3" d="M148.33,5.19a3.8,3.8,0,0,0-4.24,5"/><path class="cls-3" d="M149.71,5.77a3.79,3.79,0,0,0-4.24,5"/><path class="cls-3" d="M151.09,6.34a3.8,3.8,0,0,0-4.24,5"/><path class="cls-3" d="M151.94,6.85a3.8,3.8,0,0,0-3.71,5.09"/><path class="cls-3" d="M152.64,7.46a3.81,3.81,0,0,0-3,5.05"/><path class="cls-3" d="M153.07,8.3a3.86,3.86,0,0,0-1.41,1,3.71,3.71,0,0,0-.82,3.23"/><path class="cls-4" d="M148.44,8.68c59.44,29.44,22.33,72.2-22.06,82.45s-88.1-24.86-115.51,27.8C-19,176.28,53.19,259.55,134.66,280.3"/><path class="cls-5" d="M148.44,8.68c59.44,29.44,22.33,72.2-22.06,82.45s-88.1-24.86-115.51,27.8C-19,176.28,53.19,259.55,134.66,280.3"/><path class="cls-8" d="M149.33,9.64c56.75,29.4,20,71.35-24,81.49C81,101.38,37.28,66.27,9.87,118.93-20,176.28,52.19,259.55,133.66,280.3"/><path class="cls-6" d="M150.36,6h0a3.27,3.27,0,0,0-4.24,1.82h0A3.26,3.26,0,0,0,147.94,12h0"/></g></g></g></svg>