<svg width="218" height="45" viewBox="0 0 218 45" fill="none" xmlns="http://www.w3.org/2000/svg">
<g clip-path="url(#clip0_97_1020)">
<path d="M59.4271 4.64996L53.2051 40.35H62.6146L65.4961 23.8005L74.7016 40.35H82.1221L88.3441 4.64996H78.9346L76.0276 21.276L66.7966 4.64996H59.4271Z" fill="black"/>
<path fill-rule="evenodd" clip-rule="evenodd" d="M84.237 40.35L101.806 4.64996H111.241L116.392 40.35H106.167L105.606 35.964H96.528L94.386 40.35H84.237ZM99.8175 28.7985H104.892L103.974 19.8225L99.8175 28.7985Z" fill="black"/>
<path d="M127.034 13.524L122.342 40.35H132.491L137.183 13.524H145.368L146.898 4.64996H120.378L118.848 13.524H127.034Z" fill="black"/>
<path d="M143.383 40.35L149.605 4.64996H159.754L153.532 40.35H143.383Z" fill="black"/>
<path d="M161.937 4.64996L167.445 40.35H175.299L193.098 4.64996H182.796L174.254 24.642L172.316 4.64996H161.937Z" fill="black"/>
<path d="M195.165 4.64996L188.943 40.35H211.867L213.295 32.139H200.52L201.591 25.9935H211.255L212.581 18.369H202.917L203.886 12.861H216.279L217.707 4.64996H195.165Z" fill="black"/>
<path d="M45.0001 38.139C45.0001 37.7341 44.8377 37.3451 44.5418 37.0687C41.313 34.0523 37.4016 31.6895 33.0376 30.2159C32.6809 30.0955 32.396 30.5293 32.628 30.8259C35.5936 34.6152 37.4405 39.5402 38.5589 44.4105C38.6379 44.7542 38.9423 45 39.295 45H43.5001C44.3285 45 45.0001 44.3284 45.0001 43.5V38.139Z" fill="black"/>
<path d="M32.9973 45C33.4596 45 33.8122 44.5857 33.7314 44.1305C32.7648 38.6835 31.054 33.3821 28.1299 29.3891C27.9053 29.0825 27.5652 28.8822 27.1889 28.8289C25.6605 28.6123 24.0949 28.5 22.4999 28.5C20.9049 28.5 19.3393 28.6123 17.8109 28.8289C17.4346 28.8822 17.0945 29.0825 16.8699 29.3891C13.9458 33.3821 12.235 38.6835 11.2684 44.1305C11.1876 44.5857 11.5402 45 12.0025 45H32.9973Z" fill="black"/>
<path d="M6.44115 44.4105C6.36222 44.7542 6.05778 45 5.70512 45H1.5C0.671574 45 0 44.3284 0 43.5V38.139C0 37.7341 0.162413 37.3451 0.458265 37.0687C3.68703 34.0523 7.59847 31.6896 11.9624 30.2159C12.3192 30.0955 12.6041 30.5293 12.3721 30.8259C9.4065 34.6152 7.55959 39.5402 6.44115 44.4105Z" fill="black"/>
<path d="M28.4386 22.9503C28.6674 22.9854 28.875 22.8093 28.875 22.5778V15C28.875 14.3787 28.3713 13.875 27.75 13.875H17.25C16.6287 13.875 16.125 14.3787 16.125 15V22.5778C16.125 22.8093 16.3326 22.9854 16.5614 22.9503C18.4973 22.6539 20.481 22.5 22.5 22.5C24.519 22.5 26.5027 22.6539 28.4386 22.9503Z" fill="black"/>
<path d="M20.25 0C20.6642 0 21 0.335786 21 0.75V3.75C21 4.57843 21.6716 5.25 22.5 5.25C23.3284 5.25 24 4.57843 24 3.75V0.75C24 0.335786 24.3358 0 24.75 0H32.1542C32.4555 0 32.6338 0.33744 32.464 0.586358L29.511 4.9142C29.0441 5.59851 29.2203 6.53176 29.9046 6.99868C30.5889 7.4656 31.5222 7.28937 31.9891 6.60506L36.1609 0.490926C36.3705 0.183756 36.7183 0 37.0902 0H43.5C44.3284 0 45 0.671573 45 1.5V3.54608C45 3.80375 44.8677 4.04338 44.6497 4.1807L35.441 9.9807C34.74 10.4222 34.5296 11.3484 34.9711 12.0493C35.4126 12.7503 36.3388 12.9607 37.0398 12.5192L44.4251 7.86758C44.6749 7.7103 45 7.88977 45 8.18489V16.5C45 16.9142 44.6642 17.25 44.25 17.25H38.25C37.4216 17.25 36.75 17.9216 36.75 18.75C36.75 19.5784 37.4216 20.25 38.25 20.25H44.25C44.6642 20.25 45 20.5858 45 21V28.2352C45 28.8466 44.3049 29.2049 43.7953 28.867C40.5802 26.7355 37.0045 25.0744 33.1792 23.984C32.853 23.8911 32.625 23.5948 32.625 23.2556V15C32.625 12.3076 30.4424 10.125 27.75 10.125H17.25C14.5576 10.125 12.375 12.3076 12.375 15V23.2556C12.375 23.5948 12.147 23.8911 11.8208 23.984C7.99551 25.0744 4.41981 26.7355 1.20473 28.867C0.695127 29.2049 0 28.8466 0 28.2352V21C0 20.5858 0.335786 20.25 0.75 20.25H6.75C7.57843 20.25 8.25 19.5784 8.25 18.75C8.25 17.9216 7.57843 17.25 6.75 17.25H0.75C0.335786 17.25 0 16.9142 0 16.5V8.18495C0 7.88983 0.325132 7.71036 0.574852 7.86765L7.96023 12.5192C8.6612 12.9607 9.58737 12.7504 10.0289 12.0494C10.4704 11.3484 10.26 10.4223 9.55904 9.98077L0.350296 4.18076C0.13227 4.04344 0 3.80381 0 3.54614V1.5C0 0.671574 0.671573 0 1.5 0H7.90985C8.28171 0 8.62955 0.183756 8.83913 0.490926L13.011 6.60506C13.4779 7.28937 14.4111 7.4656 15.0954 6.99868C15.7797 6.53176 15.956 5.59851 15.4891 4.9142L12.5361 0.586358C12.3662 0.33744 12.5445 0 12.8458 0H20.25Z" fill="black"/>
</g>
<defs>
<clipPath id="clip0_97_1020">
<rect width="217.707" height="45" fill="white"/>
</clipPath>
</defs>
</svg>
