<svg fill="none" height="45" viewBox="0 0 278 45" width="278" xmlns="http://www.w3.org/2000/svg"><g fill="#000"><path d="m43.68.00000001h-42.36c-.350087 0-.685834.13907099-.933381.38661899-.247548.247548-.386619.583294-.386619.933381v4.23617c0 .37062 0 .55594.072128.69749.063446.12452.164683.22576.289201.28921.14156.07212.326871.07212.697491.07212h9.53118c.8602.03781 1.7009.2685 2.46.675l6.06 3.56251c.1228.0629.2259.1586.2979.2763.072.1178.1101.2532.1101.3912s-.0381.2734-.1101.3912c-.072.1177-.1751.2134-.2979.2763l-2.88 1.695c-.3478.1795-.7336.2732-1.125.2732s-.7772-.0937-1.125-.2732l-2.25-1.3125c-.7618-.4064-1.6049-.637-2.46751-.675h-8.20367c-.37062 0-.555931 0-.697491.0721-.124518.0635-.225755.1647-.289201.2892-.072128.1416-.072128.3269-.072128.6975v5.8249c0 .3706 0 .5559.072128.6975.063446.1245.164683.2257.289201.2892.14156.0721.326871.0721.697491.0721h8.20367c.86311-.0344 1.70701-.2652 2.46751-.675l20.25-11.89501c.7577-.40992 1.5992-.64082 2.46-.675h9.5011c.3707 0 .556 0 .6975-.07212.1245-.06345.2258-.16469.2892-.28921.0722-.14155.0722-.32687.0722-.69749v-4.23617c-.0059-.346173-.1476-.676167-.3945-.91887-.2469-.242702-.5793-.37868025-.9255-.37862999z"/><path d="m275.518 5.69428c-.802-.58968-1.736-.97554-2.721-1.12437-1.216-.20471-2.447-.30253-3.68-.29233h-6.746c-1.256-.00705-2.509.09073-3.748.29233-1.106.17753-2.169.56149-3.133 1.13186-.951.58997-1.752 1.39323-2.339 2.34618-.705 1.19514-1.168 2.51685-1.364 3.89035l-1.095 6.3114c-.3 1.3225-.325 2.6925-.075 4.0252.202.9451.707 1.7981 1.44 2.4286.806.6327 1.761 1.0482 2.773 1.2069 1.288.2345 2.596.345 3.905.3298h6.364l-1.154 6.5962h-6.484l.66-3.7928-10.105 1.3267-.404 2.4137c-.282 1.3142-.312 2.6697-.09 3.9952.176.9404.662 1.795 1.379 2.4286.781.6309 1.714 1.0446 2.706 1.1994 1.277.2227 2.571.3281 3.868.3148h7.66c1.319.0106 2.636-.0947 3.936-.3148 1.115-.1885 2.183-.5961 3.14-1.1994.953-.6221 1.746-1.459 2.316-2.4436.699-1.2397 1.166-2.596 1.38-4.0027l1.169-6.7462c.288-1.2833.288-2.6145 0-3.8978-.264-.9301-.835-1.7437-1.619-2.3087-.853-.5937-1.834-.9788-2.863-1.1243-1.279-.2046-2.573-.3024-3.868-.2924h-6.364l1.072-6.2065h5.824l-.555 3.3356 9.925-1.2518.404-2.3611c.297-1.2773.297-2.60554 0-3.88284-.232-.92342-.765-1.74344-1.514-2.33118z"/><path d="m81.349 5.69434c-.8025-.58968-1.7363-.97554-2.721-1.12437-1.2159-.20471-2.4474-.30253-3.6804-.29233h-6.7462c-1.2552-.00705-2.5089.09073-3.7478.29233-1.1062.17753-2.169.56149-3.1333 1.13186-.951.58997-1.7517 1.39323-2.3386 2.34618-.7047 1.19514-1.1682 2.51689-1.3643 3.89029l-1.0943 6.3115c-.3 1.3225-.3255 2.6924-.075 4.0252.2015.945.707 1.798 1.4392 2.4286.8062.6326 1.761 1.0481 2.7734 1.2068 1.2882.2346 2.596.3451 3.9053.3298h6.3639l-1.1543 6.5963h-6.4839l.6597-3.7928-10.1043 1.3267-.4048 2.4136c-.2811 1.3143-.3116 2.6697-.09 3.9953.1769.9404.6623 1.7949 1.3793 2.4286.7807.6309 1.7141 1.0446 2.7059 1.1993 1.277.2228 2.5717.3281 3.8678.3148h7.6607c1.3185.0107 2.6353-.0947 3.9353-.3148 1.1158-.1884 2.1833-.596 3.1407-1.1993.9526-.6221 1.746-1.4591 2.3162-2.4436.6982-1.2398 1.1656-2.596 1.3792-4.0028l1.1694-6.7461c.288-1.2833.288-2.6145 0-3.8978-.264-.9301-.8346-1.7437-1.6191-2.3087-.8533-.5937-1.8341-.9789-2.8634-1.1244-1.2789-.2045-2.5727-.3023-3.8678-.2923h-6.3639l1.0719-6.2065h5.8242l-.5547 3.3356 9.9244-1.2518.4048-2.3612c.2963-1.2773.2963-2.60548 0-3.88278-.2324-.92342-.765-1.74344-1.5142-2.33118z"/><path d="m113.243 4.68629h-26.4223l-1.5741 9.03241h8.043l-4.6324 26.595h10.3291l4.6317-26.595h8.043z"/><path d="m109.982 40.3137 6.214-35.62741h10.329l-6.206 35.62741z"/><path d="m154.035 4.68629-10.029 14.12201-5.524-14.12201h-7.713l-6.207 35.62741h8.935l3.201-18.3721 4.662 12.4204 8.808-12.6753-3.261 18.627h10.359l6.206-35.62741z"/><path d="m179.384 31.5886 4.677-26.90231h10.359l-4.872 28.11661c-.209 1.4047-.668 2.7604-1.357 4.0027-.57.9805-1.363 1.8125-2.316 2.4287-.985.6059-2.08 1.011-3.223 1.1918-1.345.2261-2.707.334-4.07.3223h-7.713c-1.309.0141-2.617-.0938-3.906-.3223-1.019-.1558-1.983-.5656-2.803-1.1918-.742-.6235-1.252-1.4793-1.447-2.4287-.245-1.325-.224-2.6856.06-4.0027l4.888-28.11661h10.321l-4.685 26.90231z"/><path d="m208.93 4.68629h-10.337l-6.206 35.62741h21.43l1.574-9.0324h-11.093z"/><path d="m234.581 31.5886 4.677-26.90231h10.359l-4.872 28.11661c-.209 1.4047-.669 2.7604-1.357 4.0027-.57.9805-1.364 1.8126-2.316 2.4287-.985.6059-2.081 1.011-3.223 1.1918-1.345.2261-2.707.334-4.07.3223h-7.714c-1.308.0141-2.616-.0938-3.905-.3223-1.019-.1558-1.984-.5656-2.803-1.1918-.742-.6235-1.252-1.4793-1.447-2.4287-.245-1.325-.225-2.6856.06-4.0027l4.887-28.11661h10.322l-4.685 26.90231z"/><path d="m35.7375 11.9097c-.8626.038-1.7057.2686-2.4675.675l-20.25 11.9025c-.7591.4065-1.5998.6372-2.46.675h-9.50118c-.37062 0-.555931 0-.697491.0721-.124518.0635-.225755.1647-.289201.2892-.072128.1416-.072128.3269-.072128.6975v5.8249c0 .3706 0 .5559.072128.6975.063446.1245.164683.2257.289201.2892.14156.0721.326871.0721.697491.0721h8.20367c.86261-.038 1.70571-.2686 2.46751-.675l20.25-11.9025c.759-.4065 1.5997-.6372 2.46-.675h9.5011c.3707 0 .556 0 .6975-.0721.1245-.0635.2258-.1647.2892-.2892.0722-.1416.0722-.3269.0722-.6975v-5.8249c0-.3706 0-.5559-.0722-.6975-.0634-.1245-.1647-.2257-.2892-.2892-.1415-.0721-.3268-.0721-.6975-.0721z"/><path d="m33.27 25.8449c.7618-.4064 1.6049-.637 2.4675-.675h8.2036c.3707 0 .556 0 .6975.0721.1245.0635.2258.1647.2892.2893.0722.1415.0722.3268.0722.6974v5.8249c0 .3706 0 .5559-.0722.6975-.0634.1245-.1647.2257-.2892.2892-.1415.0721-.3268.0721-.6974.0721h-8.2037c-.8632-.0343-1.7071-.2652-2.4675-.675l-2.25-1.305c-.3478-.1795-.7336-.2732-1.125-.2732-.3915 0-.7772.0937-1.125.2732l-2.88 1.6875c-.1248.0622-.2298.158-.3032.2766-.0734.1185-.1123.2552-.1123.3947 0 .1394.0389.2761.1123.3947.0734.1185.1784.2143.3032.2765l6.06 3.555c.7577.4099 1.5992.6408 2.46.675h9.5311c.3707 0 .556 0 .6975.0721.1245.0635.2258.1647.2892.2892.0722.1416.0722.3269.0722.6975v4.2362c-.004.3482-.1445.6809-.3915.9264-.2469.2455-.5804.3842-.9285.3861h-42.36c-.344375-.0018-.674568-.1374-.920863-.3781s-.38941355-.5677-.399137-.9119v-4.2362c0-.3706 0-.5559.072128-.6975.063446-.1245.164683-.2257.289201-.2892.141552-.0721.326851-.0721.697431-.0721h9.50124c.8608-.0342 1.7023-.2651 2.46-.675z"/></g></svg>
