<svg fill="none" height="45" viewBox="0 0 234 45" width="234" xmlns="http://www.w3.org/2000/svg"><g fill="#000"><path d="m1.32353 0c-.730966 0-1.32353.592566-1.32353 1.32353v10.79407c0 .6586 0 .9879.129789 1.1633.115933.1567.281956.2494.476173.2658.21743.0184.505558-.1592 1.081808-.5146 6.05165-3.73192 13.18053-5.88504 20.81223-5.88504s14.7606 2.15311 20.8122 5.88504c.5763.3554.8644.533 1.0818.5146.1943-.0164.3603-.1091.4762-.2658.1298-.1754.1298-.5047.1298-1.1633v-10.79407c0-.730966-.5926-1.32353-1.3235-1.32353z"/><path d="m63.2943 32.9118.6622-3.7901-10.1173 1.3143-.4076 2.4249c-.2745 1.315-.2987 2.67-.0713 3.994.1801.9373.6634 1.7893 1.3755 2.4249.7811.6334 1.7163 1.0482 2.7102 1.2022 1.2785.2208 2.5742.3265 3.8717.3159h7.6618c1.3176.0069 2.6333-.0987 3.9328-.3159 1.1188-.1881 2.1889-.5968 3.1483-1.2022.9527-.6217 1.7452-1.4595 2.3128-2.4453.693-1.2423 1.1588-2.5983 1.3755-4.0042l1.1717-6.7652c.2877-1.2814.2877-2.6107 0-3.8921-.2534-.9228-.8096-1.7338-1.5792-2.3026-.8541-.5913-1.8345-.9751-2.863-1.1208-1.2769-.2048-2.5684-.3037-3.8615-.2954h-6.3679l1.0188-6.2049h5.8279l-.5604 3.3317 9.9238-1.2227.4177-2.3943c.2889-1.2778.2889-2.60405 0-3.88189-.2381-.91682-.7716-1.72966-1.5181-2.31282-.802-.58948-1.7359-.97421-2.7204-1.12075-1.2151-.2053-2.4458-.30416-3.6781-.29547h-6.7448c-1.2457-.00399-2.4895.09484-3.7189.29547-1.1089.17206-2.1743.55603-3.1381 1.13094-.9485.59021-1.7471 1.39236-2.3332 2.34339-.7078 1.19438-1.1719 2.51723-1.3653 3.89203l-1.0902 6.317c-.3044 1.3181-.3322 2.685-.0815 4.0143.2099.9502.7252 1.8056 1.4672 2.4351.8068.6294 1.7605 1.0431 2.7713 1.2023 1.2905.2364 2.6006.349 3.9125.3362h6.3169l-1.1411 6.592z"/><path d="m86.8246 4.76188h26.4224l-1.582 9.03242h-8.043l-4.6318 26.595h-10.3292l4.6324-26.595h-8.0429z"/><g clip-rule="evenodd" fill-rule="evenodd"><path d="m109.978 40.3584 6.194-35.59531h17.085c1.304-.01272 2.606.10654 3.885.35595 1.015.18727 1.968.62026 2.777 1.26109.746.64235 1.264 1.5096 1.475 2.47133.278 1.30064.278 2.64534 0 3.94604l-1.19 6.9055c-.162.9202-.431 1.818-.804 2.6747-.312.7394-.737 1.4256-1.261 2.034-.506.5595-1.104 1.0275-1.769 1.3832-.69.3674-1.412.6704-2.157.9051h-.305l5.157 13.6889h-11.31l-3.935-12.2041h-1.424l-2.105 12.2041zm13.791-19.9639h4.342c.262.0029.523-.0348.773-.1118.222-.0711.428-.1814.611-.3255.184-.1335.331-.3121.427-.5186.104-.2228.189-.4542.254-.6916l.651-3.8646c.041-.2253.041-.4562 0-.6814-.034-.1866-.114-.3616-.234-.5086-.134-.1468-.301-.2586-.488-.3254-.236-.0781-.484-.1159-.733-.1119h-4.352z"/><path d="m156.85 4.76217-17.376 35.59623 10.342.0306 2.036-4.2447h8.795l.509 4.2447h10.382l-5.008-35.62683zm3.145 24.10403h-4.855l4.01-8.7743z"/><path d="m179.896 4.76314h13.037c1.503-.01556 3.003.15564 4.465.50967 1.244.30615 2.426.8233 3.496 1.529.986.67826 1.813 1.56143 2.426 2.5891.666 1.13679 1.148 2.37189 1.427 3.65939.341 1.5593.484 3.1551.428 4.7501-.052 1.9734-.256 3.9398-.612 5.8816-.325 2.0259-.809 4.0231-1.447 5.9733-.506 1.5487-1.19 3.0334-2.039 4.4239-.694 1.1452-1.56 2.1766-2.568 3.058-.911.8029-1.943 1.4566-3.058 1.9367-1.177.5005-2.414.8433-3.68 1.0193-1.401.2009-2.815.2997-4.23.2956h-13.853zm8.48 27.06326c.484.0051.966-.0462 1.438-.1529.443-.1011.86-.2957 1.223-.5708.404-.3058.749-.6822 1.019-1.1111.364-.5486.671-1.1326.918-1.743.339-.8158.612-1.6578.815-2.5178.245-1.0193.479-2.0998.703-3.374.225-1.2741.367-2.3444.449-3.2822.071-.7999.088-1.6035.051-2.4056-.024-.5668-.145-1.1253-.357-1.6514-.163-.3864-.406-.7338-.713-1.0193-.288-.2584-.64-.4345-1.02-.5097-.455-.0954-.92-.1398-1.386-.1325h-2.803l-3.231 18.4805z"/><path d="m218.94 4.76217-17.416 35.62683h10.342l2.036-4.2447h8.754l.509 4.2447h10.464l-5.009-35.62683zm3.105 24.13463h-4.856l4.011-8.7744z"/></g><path d="m44.9792 22.3592c.0211.0815.0211.1675.0211.3395v20.9778c0 .7309-.5926 1.3235-1.3235 1.3235h-3.4412c-.3706 0-.5559 0-.6975-.0721-.1245-.0635-.2258-.1647-.2892-.2892-.0721-.1416-.0721-.3269-.0721-.6975v-24.1435c0-.5955 0-.8932.133-1.07.1128-.1499.2981-.2501.4853-.2624.2207-.0145.462.1434.9446.4592 1.379.9024 2.6871 1.9042 3.9141 2.9952.1249.1111.1874.1667.2343.2366.0409.061.0727.1318.0911.2029z"/><path d="m34.1475 45.0001c.3706 0 .5559 0 .6975-.0721.1245-.0635.2257-.1647.2892-.2892.0721-.1416.0721-.3269.0721-.6974v-27.2271c0-.256 0-.3841-.0425-.4969-.0369-.0978-.1-.19-.178-.2598-.0898-.0803-.2057-.1253-.4375-.2151-1.2629-.4894-2.563-.9041-3.8949-1.2387-.418-.1051-.627-.1576-.8038-.1031-.1515.0467-.2888.1538-.3709.2893-.0959.1582-.0959.3804-.0959.825v28.4263c0 .3706 0 .5559.0721.6975.0634.1245.1647.2257.2892.2892.1415.0721.3269.0721.6975.0721z"/><path d="m25.0501 44.9279c-.1415.0721-.3268.0721-.6975.0721h-3.7058c-.3707 0-.556 0-.6975-.0721-.1246-.0635-.2258-.1647-.2892-.2892-.0722-.1416-.0722-.3269-.0722-.6975v-29.3447c0-.3421 0-.5132.0671-.6506.0579-.1186.1558-.2223.2708-.2869.1333-.0748.2992-.0843.6307-.1033.643-.037 1.291-.0557 1.9432-.0557s1.3001.0187 1.9431.0557c.3315.019.4975.0285.6308.1033.115.0646.2129.1683.2708.2869.0671.1374.0671.3085.0671.6506v29.3447c0 .3706 0 .5559-.0722.6975-.0634.1245-.1646.2257-.2892.2892z"/><path d="m14.5586 45.0001c.3706 0 .556 0 .6975-.0721.1245-.0635.2258-.1647.2892-.2892.0721-.1416.0721-.3269.0721-.6975v-28.4263c0-.4446 0-.6668-.0959-.825-.0821-.1355-.2194-.2426-.3709-.2893-.1768-.0545-.3858-.002-.8038.1031-1.3319.3346-2.632.7493-3.8949 1.2387-.2318.0898-.3477.1348-.4375.2151-.07794.0698-.14108.162-.17795.2598-.0425.1128-.0425.2409-.0425.4969v27.227c0 .3706 0 .5559.07213.6975.06344.1245.16462.2257.28912.2892.1416.0721.3269.0721.6975.0721z"/><path d="m5.4622 44.9279c-.14156.0721-.32687.0721-.69749.0721h-3.44118c-.730964 0-1.32353-.5926-1.32353-1.3235v-20.9778c0-.172 0-.258.0211001-.3395.0183902-.0711.0501804-.1419.0910729-.2029.046919-.0699.10939-.1255.234331-.2366 1.227016-1.091 2.535116-2.0928 3.914116-2.9952.48256-.3158.72384-.4737.94453-.4592.18723.0123.37259.1125.4854.2624.13298.1768.13298.4745.13298 1.07v24.1435c0 .3706 0 .5559-.07213.6975-.06344.1245-.16468.2257-.2892.2892z"/></g></svg>
