<svg fill="none" height="45" viewBox="0 0 204 45" width="204" xmlns="http://www.w3.org/2000/svg"><g fill="#000"><path clip-rule="evenodd" d="m201.234 5.7618c.758.59236 1.302 1.41543 1.551 2.3447.313 1.25219.331 2.5601.052 3.8205l-3.67 20.8027c-.199 1.3948-.653 2.7408-1.341 3.9702-.57.9862-1.366 1.8231-2.323 2.4421-.99.6128-2.089 1.0322-3.236 1.2361-1.35.2384-2.719.3537-4.09.3445h-8.6c-1.333.0129-2.665-.1025-3.977-.3445-1.013-.1725-1.967-.5976-2.772-1.2361-.731-.6344-1.232-1.4932-1.423-2.4421-.25-1.3128-.238-2.6623.037-3.9702l3.633-20.8027c.214-1.3469.677-2.64235 1.364-3.8205.577-.95696 1.376-1.76111 2.329-2.3447.987-.59074 2.078-.98739 3.214-1.16861 1.307-.21734 2.63-.3226 3.955-.31463h8.6c1.298-.01195 2.594.09335 3.873.31463 1.022.15679 1.99.55766 2.824 1.16861zm-19.267 25.8292h7.019l3.206-18.1658h-7.019zm-100.7645-26.90401h-26.4226l-1.5741 9.03241h8.043l-4.6324 26.5949h10.3291l4.6324-26.5949h8.043zm19.1525 0-4.6777 26.90221h-6.0866l4.6849-26.90221h-10.3217l-4.8872 28.11661c-.2848 1.3171-.3051 2.6776-.06 4.0027.1949.9494.7047 1.8051 1.4467 2.4286.8197.6262 1.7837 1.0361 2.8034 1.1918 1.2889.2285 2.5963.3364 3.9053.3224h7.7131c1.3636.0116 2.7255-.0962 4.0702-.3224 1.1426-.1808 2.2376-.5858 3.2236-1.1918.952-.6161 1.745-1.4482 2.316-2.4286.688-1.2423 1.147-2.5981 1.357-4.0027l4.872-28.11661zm14.552.00121-6.194 35.5953 10.313.0305 2.105-12.2041h1.424l3.936 12.2041h11.309l-5.157-13.6889h.306c.745-.2347 1.466-.5377 2.156-.9052.665-.3557 1.263-.8236 1.769-1.3831.524-.6084.949-1.2947 1.261-2.034.373-.8567.642-1.7546.804-2.6748l1.19-6.9054c.278-1.3007.278-2.6454 0-3.94603-.211-.96174-.729-1.82899-1.475-2.47133-.809-.64084-1.762-1.07382-2.776-1.26109-1.28-.24941-2.582-.36867-3.885-.35595zm11.939 15.6314h-4.342l1.251-7.1394h4.353c.248-.004.496.0338.732.1119.187.0668.354.1785.488.3254.12.147.2.3219.234.5085.041.2253.041.4562 0 .6814l-.651 3.8647c-.065.2374-.15.4688-.254.6915-.096.2066-.243.3851-.427.5187-.183.1441-.389.2543-.611.3254-.25.0771-.511.1148-.773.1119zm44.431-11.36729c-.179-.94999-.648-1.82142-1.341-2.49539-.739-.65664-1.63-1.12003-2.592-1.34886-1.198-.29402-2.429-.43502-3.663-.41965h-17.979l-6.18 35.62499h18.369c1.28.0113 2.558-.1296 3.805-.4197 1.098-.2616 2.137-.7268 3.064-1.3713.929-.6656 1.697-1.5311 2.247-2.5329.641-1.2002 1.074-2.4999 1.281-3.8443l.382-2.3455c.16-.8802.241-1.7731.24-2.6677.008-.7662-.121-1.5276-.382-2.2481-.235-.6375-.617-1.2103-1.116-1.6711-.577-.5016-1.25-.8814-1.978-1.1166.752-.2659 1.461-.6394 2.105-1.109.607-.4428 1.143-.976 1.588-1.5812.45-.6076.815-1.2731 1.087-1.9783.292-.7841.508-1.5947.644-2.4205l.412-2.2481c.234-1.2579.237-2.548.007-3.80679zm-12.637 18.99649-.48 2.6977c-.043.2987-.123.5908-.239.8693-.1.2375-.251.4499-.442.622-.203.1675-.438.2923-.69.3671-.314.0899-.639.1328-.966.1274h-4.63l1.169-6.6918h4.63c.268-.0386.541-.0176.8.0614s.497.2141.698.3957c.127.2354.206.4939.232.7604.026.2664-.002.5353-.082.7908zm2.165-13.616-.36 2.2481c-.054.3272-.147.6468-.277.9517-.099.2379-.25.4504-.442.6219-.202.1668-.437.2894-.689.3597-.32.0892-.65.1321-.982.1274h-4.397l1.071-6.2647h4.398c.319-.0065.637.0365.944.1274.221.0683.418.1983.569.3747.133.1761.214.3867.232.607.009.285-.021.57-.09.8468z" fill-rule="evenodd"/><path d="m43.6259 0h-42.24439c-.3664 0-.717791.145552-.976875.404635-.259083.259084-.404635.610475-.404635.976875v4.73605c0 .37063 0 .55594.0721279.6975.0634451.12452.1646821.22575.2892011.2892.141559.07213.32687.07213.697491.07213h21.44118c2.7726.00188 5.4929.75565 7.8711 2.18105 2.3782 1.42536 4.3253 3.46906 5.6341 5.91336 1.3087 2.4444 1.9301 5.1979 1.7979 7.9674-.1006 2.1091-.6354 4.1674-1.563 6.0488-.31.6287-.465.9431-.4338 1.1486.029.1912.1172.3331.2759.4437.1705.1188.4965.1188 1.1484.1188h6.6731c.3707 0 .556 0 .6975-.0721.1246-.0635.2258-.1647.2892-.2892.0722-.1416.0722-.3269.0722-.6975v-28.55779c.0021-.35933-.1367-.705181-.3866-.963424-.2498-.258243-.5909-.40832746-.9501-.418086z"/><path d="m7.17639 22.5c-.00256-2.3621.54218-4.6833 1.58034-6.7854.31091-.6296.46637-.9444.43528-1.1499-.02895-.1914-.1171-.3332-.27584-.4439-.17056-.1189-.49697-.1189-1.14978-.1189h-6.70757c-.37062 0-.555932 0-.697491.0721-.124519.0634-.225756.1647-.2892011.2892-.0721279.1416-.0721279.3269-.0721279.6975v28.5652c-.00000267.1811.0357839.3604.105303.5276.069518.1672.171398.319.299781.4467.128384.1277.28074.2287.44831.2973.167566.0687.347046.1035.528116.1025h42.24439c.3644 0 .7139-.1448.9716-.4025.2576-.2576.4024-.6071.4024-.9716v-4.7435c0-.3706 0-.5559-.0721-.6975-.0635-.1245-.1647-.2257-.2892-.2892-.1416-.0721-.3269-.0721-.6975-.0721h-21.4411c-4.0641 0-7.9617-1.6145-10.8354-4.4882-2.87377-2.8737-4.48821-6.7713-4.48821-10.8354z"/><path clip-rule="evenodd" d="m29.3627 23.1497c1.4648-.1621 2.9028-.5109 4.2789-1.038v-.0523c.4071-.1258.8469-.0901 1.2283.0997s.6751.5191.8202.9197c.145.4006.1303.8416-.0412 1.2316-.1714.39-.4864.6991-.8796.863-2.0033.7896-4.128 1.2267-6.2803 1.2919h-.3809c-.3841.5345-.8416 1.0121-1.3591 1.4188.8811.8644 1.8554 1.6283 2.9049 2.2777.3704.2347.6324.6069.7283 1.0347s.018.8763-.2167 1.2466c-.2347.3704-.6069.6324-1.0348.7283-.4278.0959-.8762.018-1.2466-.2167-1.6275-.993-3.0891-2.2353-4.3312-3.6816-.3486.0514-.7006.0764-1.0529.0747h-.6721c.053.5505.1428 1.0969.2688 1.6354.1045.4705.239.9633.4033 1.4935.0848.3055.1825.5767.2866.8656.0333.0924.0673.1867.1017.2844.108.2957.1288.6161.06.9233-.0688.3071-.2245.588-.4483.8092-.17.1696-.3735.3019-.5975.3884-.1821.0647-.3741.0976-.5675.097-.3342.0026-.6612-.0969-.9374-.285-.2761-.1881-.4884-.456-.6084-.7679-.4596-1.2242-.8119-2.486-1.0529-3.7711-.1859-.9516-.2661-1.9208-.239-2.89-.5311-.3881-1.0083-.8452-1.4188-1.3591-.8548.8799-1.6065 1.8545-2.2403 2.9049-.1517.2331-.3601.4239-.6056.5545-.2456.1306-.5203.1968-.7983.1922-.2965.0011-.5878-.0778-.8433-.2282-.2555-.1505-.4657-.367-.6086-.6268s-.2131-.5532-.2034-.8496c.0098-.2963.0992-.5845.2588-.8344.9933-1.6316 2.2383-3.0959 3.689-4.3386-.0539-.3459-.0813-.6954-.0821-1.0455 0-.112.0093-.224.0186-.3361.0094-.112.0187-.224.0187-.336-1.4887.1672-2.9495.5261-4.3461 1.0679-.412.1505-.8669.1312-1.2646-.0537-.39773-.1848-.70573-.5201-.85625-.9321-.15052-.4119-.13123-.8668.05363-1.2645s.52014-.7057.93212-.8563c2.1194-.8544 4.3834-1.293 6.6686-1.2919.3839-.5346.8414-1.0123 1.3591-1.4188-.8843-.853-1.8611-1.6044-2.9124-2.2403-.3517-.2434-.5958-.6133-.6812-1.0324-.0853-.4191-.0054-.855.2231-1.2166.2285-.3615.5879-.6208 1.0031-.7235.4152-.1028.8541-.0411 1.2248.1721 1.6325.9953 3.0989 2.24 4.3462 3.6891.5679-.0917 1.1456-.1067 1.7175-.0449-.0446-.5743-.1244-1.1454-.2389-1.71-.112-.463-.2465-.9634-.4107-1.4936-.1121-.3957-.239-.7467-.3884-1.1425-.1068-.297-.127-.6183-.0582-.9263.0687-.3081.2236-.59026.4466-.81366.1697-.17161.3767-.30192.6048-.38085.204-.07499.4207-.10897.6378-.09998.2171.00898.4303.06075.6274.15234.197.09159.374.22118.5209.38135.1468.16017.2606.34777.3347.552.4561 1.2253.8084 2.4868 1.053 3.7712.1803.9548.2579 1.9261.2315 2.8974.5359.3794 1.0139.8347 1.4188 1.3516.8659-.8796 1.63-1.8541 2.2776-2.9049.2347-.3703.6069-.6323 1.0348-.7282.4278-.0959.8762-.018 1.2466.2167s.6323.6069.7283 1.0347c.0959.4279.0179.8763-.2168 1.2467-.993 1.6296-2.2352 3.0936-3.6815 4.3387.0815.5713.0966 1.1502.0448 1.725zm-3.1887-.351v-.2987h.0299c-.0105-.6853-.2095-1.3544-.575-1.9341-.0967-.1607-.2066-.3131-.3286-.4556-.5106-.6004-1.198-1.0238-1.964-1.2097-.1865-.045-.3762-.0749-.5675-.0896h-.2987c-.6824.0015-1.3514.1901-1.9341.5451-.1604.1035-.3149.2157-.463.3361-.5977.5116-1.0185 1.199-1.2023 1.9639-.045.184-.0749.3713-.0896.5601v.2987c.0015.6824.1901 1.3514.5451 1.9341.1017.1616.2139.3163.3361.463.3136.3725.6983.6786 1.1318.9004.4334.2218.9067.355 1.3922.3915h.2987c.6824-.0015 1.3514-.1901 1.9341-.5451.1608-.0967.3131-.2066.4556-.3286.3746-.3138.6826-.6995.9058-1.1343s.357-.9099.3935-1.3972z" fill-rule="evenodd"/></g></svg>